<svg width="40" height="40" viewBox="0 0 40 40" fill="none" xmlns="http://www.w3.org/2000/svg">
<g clip-path="url(#clip0_71_64)">
<rect width="40" height="40" rx="14" fill="white" fill-opacity="0.07"/>
<g filter="url(#filter0_f_71_64)">
<ellipse cx="20.5" cy="43" rx="14.5" ry="4" fill="#CCF2F0" fill-opacity="0.65"/>
</g>
<path d="M11.6671 20.0009C11.6671 16.8582 11.6671 15.2869 12.6434 14.3105C13.6198 13.3342 15.1911 13.3342 18.3338 13.3342H21.6671C24.8098 13.3342 26.3812 13.3342 27.3575 14.3105C28.3338 15.2869 28.3338 16.8582 28.3338 20.0009C28.3338 23.1436 28.3338 24.715 27.3575 25.6912C26.3812 26.6676 24.8098 26.6676 21.6671 26.6676H18.3338C15.1911 26.6676 13.6198 26.6676 12.6434 25.6912C11.6671 24.715 11.6671 23.1436 11.6671 20.0009Z" stroke="white" stroke-linecap="round" stroke-linejoin="round"/>
<path d="M19.1662 18.3324C19.1662 17.412 18.42 16.6658 17.4995 16.6658C16.5791 16.6658 15.8329 17.412 15.8329 18.3324C15.8329 19.2529 16.5791 19.9991 17.4995 19.9991C18.42 19.9991 19.1662 19.2529 19.1662 18.3324Z" stroke="white" stroke-linecap="round" stroke-linejoin="round"/>
<path d="M20.8338 23.3333C20.8338 21.4924 19.3414 20 17.5005 20C15.6595 20 14.1671 21.4924 14.1671 23.3333" stroke="white" stroke-linecap="round" stroke-linejoin="round"/>
<path d="M22.5 17.5H25.8333" stroke="white" stroke-linecap="round" stroke-linejoin="round"/>
<path d="M22.5 20H25.8333" stroke="white" stroke-linecap="round" stroke-linejoin="round"/>
</g>
<rect x="0.5" y="0.5" width="39" height="39" rx="13.5" stroke="url(#paint0_linear_71_64)" stroke-opacity="0.4"/>
<defs>
<filter id="filter0_f_71_64" x="-4" y="29" width="49" height="28" filterUnits="userSpaceOnUse" color-interpolation-filters="sRGB">
<feFlood flood-opacity="0" result="BackgroundImageFix"/>
<feBlend mode="normal" in="SourceGraphic" in2="BackgroundImageFix" result="shape"/>
<feGaussianBlur stdDeviation="5" result="effect1_foregroundBlur_71_64"/>
</filter>
<linearGradient id="paint0_linear_71_64" x1="20" y1="0" x2="20" y2="23.6364" gradientUnits="userSpaceOnUse">
<stop stop-color="white"/>
<stop offset="1" stop-color="white" stop-opacity="0"/>
</linearGradient>
<clipPath id="clip0_71_64">
<rect width="40" height="40" rx="14" fill="white"/>
</clipPath>
</defs>
</svg>
