<svg width="38" height="38" viewBox="0 0 38 38" fill="none" xmlns="http://www.w3.org/2000/svg">
<g clip-path="url(#clip0_1318_415)">
<rect width="37.7638" height="37.7638" rx="10.0703" fill="white" fill-opacity="0.1"/>
<path d="M10.6667 19.0547C10.6667 23.657 14.3976 27.388 19 27.388C23.6023 27.388 27.3333 23.657 27.3333 19.0547C27.3333 14.4523 23.6023 10.7214 19 10.7214C15.5828 10.7214 12.646 12.7782 11.3601 15.7214M10.6667 12.8047L11.0833 16.138L14.4167 15.3047" stroke="white" stroke-width="1.3" stroke-linecap="round" stroke-linejoin="round"/>
<path d="M21.2714 17.4383C21.189 16.8027 20.4607 15.7759 19.151 15.7758C17.6293 15.7758 16.9889 16.6202 16.859 17.0424C16.6563 17.6072 16.6969 18.7683 18.4805 18.8948C20.7102 19.0532 21.6033 19.3168 21.4898 20.684C21.3761 22.0511 20.1333 22.3465 19.151 22.3148C18.1687 22.2832 16.5617 21.8311 16.4993 20.6151M18.9951 14.4707V15.7789M18.9951 22.3066V23.6373" stroke="white" stroke-width="1.3" stroke-linecap="round"/>
<g filter="url(#filter0_f_1318_415)">
<ellipse cx="19" cy="37.5547" rx="11" ry="3.5" fill="#CCF2F0" fill-opacity="0.65"/>
</g>
</g>
<rect x="0.5" y="0.5" width="36.7638" height="36.7638" rx="9.57035" stroke="url(#paint0_linear_1318_415)" stroke-opacity="0.2"/>
<defs>
<filter id="filter0_f_1318_415" x="0" y="26.0547" width="38" height="23" filterUnits="userSpaceOnUse" color-interpolation-filters="sRGB">
<feFlood flood-opacity="0" result="BackgroundImageFix"/>
<feBlend mode="normal" in="SourceGraphic" in2="BackgroundImageFix" result="shape"/>
<feGaussianBlur stdDeviation="4" result="effect1_foregroundBlur_1318_415"/>
</filter>
<linearGradient id="paint0_linear_1318_415" x1="18.8819" y1="0" x2="18.8819" y2="9.05469" gradientUnits="userSpaceOnUse">
<stop stop-color="white"/>
<stop offset="1" stop-color="white" stop-opacity="0"/>
</linearGradient>
<clipPath id="clip0_1318_415">
<rect width="37.7638" height="37.7638" rx="10.0703" fill="white"/>
</clipPath>
</defs>
</svg>
