<svg width="38" height="38" viewBox="0 0 38 38" fill="none" xmlns="http://www.w3.org/2000/svg">
<g clip-path="url(#clip0_1318_384)">
<rect width="37.76" height="37.76" rx="10.0703" fill="#FDFFFF" fill-opacity="0.1"/>
<line x1="7.76563" y1="0.25" x2="29.7656" y2="0.250002" stroke="url(#paint0_linear_1318_384)" stroke-width="1.5"/>
<path d="M15.0156 13.75V11.5M15.0156 24.25V26.5" stroke="white" stroke-width="1.3" stroke-linecap="round" stroke-linejoin="round"/>
<path d="M22.5156 16.0017C23.1485 16.0017 23.879 15.9392 24.2399 16.5642C24.3906 16.8253 24.3906 17.1758 24.3906 17.8767V20.1267C24.3906 20.8277 24.3906 21.1781 24.2399 21.4392C23.879 22.0643 23.1485 22.0017 22.5156 22.0017C21.8827 22.0017 21.1522 22.0643 20.7914 21.4392C20.6406 21.1781 20.6406 20.8277 20.6406 20.1267V17.8767C20.6406 17.1758 20.6406 16.8253 20.7914 16.5642C21.1522 15.9392 21.8827 16.0017 22.5156 16.0017Z" stroke="white" stroke-width="1.3" stroke-linecap="round" stroke-linejoin="round"/>
<path d="M15.0156 13.7517C15.6485 13.7517 16.379 13.6892 16.7399 14.3142C16.8906 14.5753 16.8906 14.9258 16.8906 15.6267V22.3767C16.8906 23.0777 16.8906 23.4281 16.7399 23.6892C16.379 24.3143 15.6485 24.2517 15.0156 24.2517C14.3827 24.2517 13.6522 24.3143 13.2913 23.6892C13.1406 23.4281 13.1406 23.0777 13.1406 22.3767V15.6267C13.1406 14.9258 13.1406 14.5753 13.2913 14.3142C13.6522 13.6892 14.3827 13.7517 15.0156 13.7517Z" stroke="white" stroke-width="1.3" stroke-linecap="round" stroke-linejoin="round"/>
<path d="M22.5156 16V11.5M22.5156 22V26.5" stroke="white" stroke-width="1.3" stroke-linecap="round" stroke-linejoin="round"/>
</g>
<rect x="0.5" y="0.5" width="36.76" height="36.76" rx="9.57035" stroke="url(#paint1_linear_1318_384)" stroke-opacity="0.2"/>
<defs>
<linearGradient id="paint0_linear_1318_384" x1="7.76562" y1="1.5" x2="29.7656" y2="1.5" gradientUnits="userSpaceOnUse">
<stop stop-color="white" stop-opacity="0"/>
<stop offset="0.49" stop-color="white"/>
<stop offset="1" stop-color="white" stop-opacity="0"/>
</linearGradient>
<linearGradient id="paint1_linear_1318_384" x1="18.88" y1="0" x2="18.88" y2="12.5" gradientUnits="userSpaceOnUse">
<stop stop-color="white"/>
<stop stop-color="white" stop-opacity="0.695495"/>
<stop offset="1" stop-color="white" stop-opacity="0.04"/>
</linearGradient>
<clipPath id="clip0_1318_384">
<rect width="37.76" height="37.76" rx="10.0703" fill="white"/>
</clipPath>
</defs>
</svg>
