<svg width="19" height="19" viewBox="0 0 19 19" fill="none" xmlns="http://www.w3.org/2000/svg">
<path d="M2.77087 8.3125V15.4375C2.77087 15.8063 2.77087 15.9908 2.83114 16.1363C2.91148 16.3303 3.0656 16.4844 3.25959 16.5648C3.40507 16.625 3.5895 16.625 3.95837 16.625C4.32724 16.625 4.51168 16.625 4.65716 16.5648C4.85114 16.4844 5.00527 16.3303 5.08561 16.1363C5.14587 15.9908 5.14587 15.8063 5.14587 15.4375V8.3125C5.14587 7.94366 5.14587 7.7592 5.08561 7.61371C5.00527 7.41973 4.85114 7.26561 4.65716 7.18526C4.51168 7.125 4.32724 7.125 3.95837 7.125C3.5895 7.125 3.40507 7.125 3.25959 7.18526C3.0656 7.26561 2.91148 7.41973 2.83114 7.61371C2.77087 7.7592 2.77087 7.94366 2.77087 8.3125Z" stroke="white" stroke-width="1.21" stroke-linejoin="round"/>
<path d="M13.8542 6.33333L15.4375 8.31249L13.4584 9.89583" stroke="white" stroke-width="1.21" stroke-linecap="round" stroke-linejoin="round"/>
<path d="M15.0417 8.31408C15.0417 8.31408 9.10423 8.31408 3.16675 2.37654" stroke="white" stroke-width="1.21" stroke-linecap="round" stroke-linejoin="round"/>
<path d="M8.3125 11.0833V15.4375C8.3125 15.8063 8.3125 15.9908 8.37275 16.1363C8.4531 16.3303 8.60724 16.4844 8.8012 16.5647C8.9467 16.625 9.13116 16.625 9.5 16.625C9.86884 16.625 10.0533 16.625 10.1988 16.5647C10.3928 16.4844 10.5469 16.3303 10.6273 16.1363C10.6875 15.9908 10.6875 15.8063 10.6875 15.4375V11.0833C10.6875 10.7145 10.6875 10.53 10.6273 10.3845C10.5469 10.1906 10.3928 10.0364 10.1988 9.95607C10.0533 9.89583 9.86884 9.89583 9.5 9.89583C9.13116 9.89583 8.9467 9.89583 8.8012 9.95607C8.60724 10.0364 8.4531 10.1906 8.37275 10.3845C8.3125 10.53 8.3125 10.7145 8.3125 11.0833Z" stroke="white" stroke-width="1.21" stroke-linejoin="round"/>
<path d="M13.8541 13.0625V15.4375C13.8541 15.8063 13.8541 15.9908 13.9144 16.1363C13.9947 16.3303 14.1489 16.4844 14.3428 16.5648C14.4883 16.625 14.6728 16.625 15.0416 16.625C15.4105 16.625 15.5949 16.625 15.7404 16.5648C15.9344 16.4844 16.0885 16.3303 16.1689 16.1363C16.2291 15.9908 16.2291 15.8063 16.2291 15.4375V13.0625C16.2291 12.6937 16.2291 12.5092 16.1689 12.3637C16.0885 12.1697 15.9344 12.0156 15.7404 11.9352C15.5949 11.875 15.4105 11.875 15.0416 11.875C14.6728 11.875 14.4883 11.875 14.3428 11.9352C14.1489 12.0156 13.9947 12.1697 13.9144 12.3637C13.8541 12.5092 13.8541 12.6937 13.8541 13.0625Z" stroke="white" stroke-width="1.21" stroke-linejoin="round"/>
</svg>
