<svg width="104" height="25" viewBox="0 0 104 25" fill="none" xmlns="http://www.w3.org/2000/svg">
<path d="M2.38419e-07 0.000104904H17.408V3.7761H4.416V9.6641H15.904V13.2161H4.416V19.9361H17.696V23.8081H2.38419e-07V0.000104904ZM29.407 24.3521C28.159 24.3521 26.975 24.2241 25.887 23.9361C24.767 23.6481 23.807 23.2001 22.975 22.6241C22.143 22.0481 21.471 21.3121 20.991 20.4161C20.479 19.5201 20.255 18.4961 20.255 17.3121C20.255 15.8401 20.671 14.6241 21.503 13.6321C22.335 12.6401 23.519 11.9361 24.991 11.4881V11.3921C23.775 11.0081 22.847 10.4001 22.239 9.5681C21.599 8.7681 21.311 7.80811 21.311 6.65611C21.311 5.76011 21.503 4.9281 21.887 4.1601C22.271 3.39211 22.847 2.7521 23.551 2.20811C24.255 1.6641 25.087 1.2481 26.079 0.960104C27.039 0.672104 28.127 0.512104 29.343 0.512104C30.527 0.512104 31.615 0.672104 32.607 0.928104C33.567 1.2161 34.431 1.6321 35.135 2.1441C35.839 2.6881 36.383 3.3281 36.767 4.0641C37.151 4.8321 37.375 5.6641 37.375 6.5921C37.375 7.7121 37.055 8.6721 36.447 9.5041C35.839 10.3361 34.943 10.9441 33.727 11.3281V11.4241C35.199 11.8081 36.351 12.5121 37.183 13.5361C38.015 14.5601 38.431 15.8081 38.431 17.2161C38.431 18.4321 38.175 19.4561 37.695 20.3521C37.215 21.2481 36.575 22.0161 35.743 22.5921C34.911 23.2001 33.983 23.6481 32.895 23.9361C31.807 24.2241 30.623 24.3521 29.407 24.3521ZM29.343 10.0801C30.623 10.0801 31.583 9.7921 32.287 9.2161C32.991 8.6401 33.343 7.8721 33.343 6.8481C33.343 5.8561 32.991 5.0561 32.287 4.4801C31.583 3.9041 30.623 3.5841 29.343 3.5841C28.063 3.5841 27.071 3.9041 26.367 4.4801C25.663 5.0561 25.311 5.8561 25.311 6.8481C25.311 7.8721 25.663 8.6401 26.367 9.2161C27.071 9.7921 28.063 10.0801 29.343 10.0801ZM29.407 21.0881C30.879 21.0881 32.031 20.7361 32.895 20.0321C33.727 19.3281 34.175 18.3361 34.175 17.1201C34.175 15.8401 33.727 14.8481 32.895 14.1121C32.063 13.3761 30.879 12.9921 29.375 12.9921C27.839 12.9921 26.655 13.3761 25.823 14.1121C24.959 14.8481 24.543 15.8401 24.543 17.1201C24.543 18.3681 24.959 19.3281 25.823 20.0321C26.655 20.7361 27.871 21.0881 29.407 21.0881ZM43.6964 11.9041H46.6244L48.5764 17.5681C48.6884 17.9201 48.8004 18.3361 48.9284 18.7841C49.0404 19.2481 49.1524 19.6801 49.2644 20.0961L49.6164 21.5681H49.6644C49.7604 21.0881 49.8724 20.5921 50.0004 20.0961C50.0964 19.6961 50.1924 19.2641 50.3204 18.8001C50.4484 18.3361 50.5604 17.9201 50.6884 17.5681L52.6084 11.9041H55.6004V23.8081H53.5364V17.6001C53.5364 17.2801 53.5364 16.9121 53.5524 16.4801C53.5524 16.0641 53.5684 15.6481 53.6004 15.2641C53.6164 14.8161 53.6484 14.3681 53.6804 13.8881H53.6484C53.5524 14.3201 53.4404 14.7361 53.3444 15.1361C53.2484 15.4881 53.1524 15.8561 53.0564 16.2401C52.9604 16.6241 52.8644 16.9761 52.7684 17.2641L50.5124 23.8081H48.7204L46.4484 17.2641C46.3524 16.9761 46.2404 16.6241 46.1444 16.2401C46.0324 15.8561 45.9364 15.4881 45.8564 15.1361C45.7444 14.7361 45.6484 14.3201 45.5684 13.8881H45.5364C45.5524 14.3681 45.5684 14.8161 45.6004 15.2641C45.6164 15.6481 45.6324 16.0641 45.6484 16.4801C45.6644 16.9121 45.6804 17.2801 45.6804 17.6001V23.8081H43.6964V11.9041ZM63.1654 23.8081C63.0854 23.7121 63.0214 23.5841 62.9734 23.4081C62.9254 23.2321 62.8934 22.9921 62.8774 22.7041H62.8454C62.5574 23.0881 62.2214 23.3921 61.8054 23.6481C61.3894 23.9041 60.8294 24.0161 60.1574 24.0161C59.7414 24.0161 59.3414 23.9681 58.9894 23.8561C58.6374 23.7601 58.3334 23.6001 58.0774 23.3761C57.8214 23.1681 57.6134 22.9121 57.4694 22.5921C57.3094 22.2721 57.2454 21.9041 57.2454 21.4881C57.2454 21.0081 57.3254 20.6241 57.5014 20.3041C57.6774 19.9841 57.9174 19.7281 58.2374 19.5361C58.5414 19.3441 58.9094 19.2001 59.3414 19.1041C59.7574 19.0081 60.2374 18.9121 60.7494 18.8481C61.4534 18.7681 61.9814 18.6561 62.3334 18.4961C62.6854 18.3361 62.8614 18.0641 62.8614 17.6801C62.8614 17.3121 62.7334 17.0081 62.4774 16.7841C62.2214 16.5601 61.8374 16.4481 61.3254 16.4481C60.7494 16.4481 60.3174 16.5761 60.0294 16.8161C59.7414 17.0721 59.5974 17.4081 59.5814 17.8241H57.6614C57.6614 17.4721 57.7414 17.1201 57.9014 16.7841C58.0614 16.4481 58.2854 16.1441 58.5894 15.8881C58.8934 15.6321 59.2774 15.4401 59.7254 15.2801C60.1734 15.1201 60.7014 15.0401 61.3094 15.0401C61.7894 15.0401 62.2214 15.0881 62.6054 15.1521C62.9894 15.2321 63.3094 15.3601 63.5974 15.5361C64.3974 16.0321 64.8134 16.8481 64.8134 17.9681V22.4641C64.8134 22.8161 64.8294 23.0881 64.8934 23.2801C64.9574 23.4721 65.0374 23.6001 65.1334 23.6641V23.8081H63.1654ZM60.7494 22.6241C61.1014 22.6241 61.4054 22.5761 61.6774 22.4641C61.9334 22.3521 62.1574 22.2081 62.3494 22.0321C62.5254 21.8561 62.6694 21.6481 62.7654 21.4241C62.8614 21.2001 62.9094 20.9601 62.9094 20.7041V19.4401C62.7014 19.5681 62.4454 19.6801 62.1574 19.7761C61.8534 19.8721 61.5494 19.9361 61.2454 20.0001C60.6054 20.1281 60.1254 20.2721 59.7894 20.4641C59.4374 20.6561 59.2774 20.9761 59.2774 21.4401C59.2774 21.6641 59.3094 21.8561 59.3894 22.0161C59.4694 22.1761 59.5814 22.2881 59.7094 22.3841C59.8374 22.4801 59.9974 22.5441 60.1894 22.5761C60.3654 22.6081 60.5574 22.6241 60.7494 22.6241ZM68.6599 16.8001H68.7079C69.2519 15.6961 70.0679 15.1361 71.1559 15.1361C71.3959 15.1361 71.5719 15.1681 71.6999 15.2161V17.0401H71.6359C71.4599 17.0081 71.2679 16.9761 71.0759 16.9761C70.4039 16.9761 69.8439 17.1841 69.3959 17.6321C68.9479 18.0801 68.7239 18.7041 68.7239 19.5201V23.8081H66.6919V15.2641H68.6599V16.8001ZM76.0597 19.7121L75.0517 20.7201V23.8081H73.0357V11.9041H75.0517V16.5121C75.0517 16.9281 75.0357 17.3121 75.0197 17.6801C75.0037 18.0641 74.9877 18.3681 74.9877 18.6081L78.2037 15.2641H80.6197L77.4837 18.3841L80.9877 23.8081H78.6197L76.0597 19.7121ZM85.4869 24.0641C84.7989 24.0641 84.1909 23.9521 83.6469 23.7121C83.1029 23.4881 82.6549 23.1681 82.2869 22.7521C81.9029 22.3521 81.6149 21.8721 81.4229 21.3281C81.2309 20.7841 81.1349 20.1921 81.1349 19.5521C81.1349 18.9121 81.2309 18.3201 81.4389 17.7761C81.6309 17.2321 81.9189 16.7521 82.3029 16.3361C82.6709 15.9361 83.1189 15.6161 83.6469 15.3921C84.1589 15.1681 84.7349 15.0401 85.3749 15.0401C85.9989 15.0401 86.5589 15.1521 87.0389 15.3601C87.5189 15.5681 87.9509 15.8561 88.3189 16.2401C88.7349 16.6881 89.0389 17.2481 89.2469 17.8881C89.4389 18.5281 89.5349 19.2481 89.5349 20.0481H83.1509C83.2149 20.7841 83.4549 21.3921 83.8389 21.8401C84.2229 22.2881 84.7829 22.5121 85.5029 22.5121C85.9829 22.5121 86.3829 22.4161 86.7029 22.2241C87.0229 22.0321 87.2469 21.7441 87.3909 21.3921H89.3749C89.2629 21.7761 89.1029 22.1441 88.8789 22.4641C88.6549 22.7841 88.3829 23.0721 88.0629 23.3121C87.7269 23.5521 87.3429 23.7441 86.9109 23.8721C86.4789 24.0001 85.9989 24.0641 85.4869 24.0641ZM85.3749 16.5121C84.7029 16.5121 84.1909 16.7201 83.8389 17.1361C83.4869 17.5521 83.2629 18.0961 83.1829 18.7681H87.4389C87.3909 18.0641 87.1829 17.5201 86.8309 17.1201C86.4789 16.7201 85.9829 16.5121 85.3749 16.5121ZM90.2893 15.2641H91.6013V12.5441H93.6013V15.2641H95.3133V16.6561H93.6013V21.4401C93.6013 21.7601 93.6813 21.9681 93.8413 22.0801C94.0013 22.1921 94.2253 22.2401 94.5133 22.2401C94.6093 22.2401 94.7213 22.2401 94.8493 22.2241C94.9773 22.2241 95.0733 22.2081 95.1693 22.1761H95.2653V23.7601C95.0893 23.7921 94.8973 23.8241 94.6733 23.8561C94.4493 23.8881 94.1933 23.8881 93.9213 23.8881C93.5693 23.8881 93.2653 23.8561 92.9773 23.7921C92.6893 23.7281 92.4333 23.6161 92.2413 23.4561C92.0333 23.2961 91.8733 23.0881 91.7613 22.8321C91.6493 22.5761 91.6013 22.2721 91.6013 21.8881V16.6561H90.2893V15.2641ZM100.241 24.0801C99.0089 24.0801 98.0489 23.8241 97.3769 23.2801C96.7049 22.7521 96.3369 22.0481 96.2729 21.1841H98.2249C98.3049 21.6961 98.5289 22.0801 98.8969 22.3041C99.2489 22.5281 99.7129 22.6401 100.257 22.6401C100.817 22.6401 101.233 22.5441 101.505 22.3201C101.761 22.0961 101.905 21.8241 101.905 21.4721C101.905 21.2641 101.841 21.0881 101.745 20.9601C101.633 20.8321 101.489 20.7201 101.297 20.6241C101.105 20.5281 100.865 20.4641 100.593 20.4001C100.321 20.3361 100.017 20.2721 99.6969 20.2081C99.2809 20.1441 98.8969 20.0481 98.5289 19.9361C98.1449 19.8401 97.8249 19.6961 97.5369 19.5041C97.2489 19.3121 97.0089 19.0721 96.8329 18.7681C96.6569 18.4641 96.5769 18.0641 96.5769 17.5841C96.5769 17.1841 96.6569 16.8321 96.8169 16.5121C96.9769 16.1921 97.2169 15.9361 97.5049 15.7121C97.7929 15.4881 98.1609 15.3281 98.5769 15.2161C98.9929 15.1041 99.4409 15.0401 99.9529 15.0401C101.089 15.0401 101.953 15.2801 102.529 15.7441C103.105 16.2081 103.457 16.8161 103.569 17.5521H101.633C101.473 16.8001 100.913 16.4161 99.9369 16.4161C99.4569 16.4161 99.0889 16.5121 98.8489 16.7041C98.6089 16.8961 98.4969 17.1521 98.4969 17.4401C98.4969 17.6321 98.5449 17.7921 98.6569 17.9041C98.7529 18.0321 98.9129 18.1281 99.1049 18.2081C99.2969 18.2881 99.5209 18.3521 99.7929 18.4001L100.673 18.5761C101.073 18.6561 101.473 18.7521 101.857 18.8481C102.241 18.9441 102.577 19.1041 102.881 19.2961C103.185 19.4881 103.425 19.7601 103.617 20.0801C103.793 20.4001 103.889 20.8321 103.889 21.3441C103.889 21.7921 103.793 22.1921 103.617 22.5281C103.425 22.8801 103.169 23.1681 102.849 23.3921C102.529 23.6161 102.145 23.7921 101.697 23.9041C101.249 24.0321 100.753 24.0801 100.241 24.0801Z" fill="white"/>
</svg>
