<svg width="20" height="20" viewBox="0 0 20 20" fill="none" xmlns="http://www.w3.org/2000/svg">
<path d="M14.54 9.89551C14.7425 9.89551 14.9325 9.9966 15.0449 10.165L17.4678 13.7998C17.6034 14.0032 17.6032 14.2682 17.4678 14.4717L15.0449 18.1074C14.9326 18.2759 14.7426 18.377 14.54 18.377C14.3377 18.3768 14.1484 18.2758 14.0361 18.1074L11.6133 14.4717C11.4778 14.2682 11.4777 14.0032 11.6133 13.7998L14.0361 10.165C14.1484 9.99673 14.3377 9.89567 14.54 9.89551ZM14.7529 15.6123C14.616 15.6635 14.465 15.6635 14.3281 15.6123L13.6631 15.3623L14.54 16.6777L15.417 15.3623L14.7529 15.6123ZM3.7207 10.793C3.8991 10.6829 4.12199 10.673 4.30957 10.7666L5.92578 11.5742C6.22494 11.7238 6.34576 12.0885 6.19629 12.3877C6.04654 12.6867 5.68291 12.8077 5.38379 12.6582L4.65039 12.291C4.6574 12.7937 4.67485 13.1534 4.72461 13.4385C4.79178 13.8229 4.90778 14.028 5.15625 14.2539C5.23667 14.327 5.39223 14.4141 5.66602 14.4922C5.93434 14.5686 6.27551 14.6255 6.6875 14.6641C7.51498 14.7415 8.54188 14.7412 9.69336 14.7412C10.0279 14.7412 10.2997 15.0132 10.2998 15.3477C10.2997 15.6822 10.0279 15.9531 9.69336 15.9531C8.5605 15.9531 7.47026 15.954 6.57422 15.8701C6.12469 15.828 5.70218 15.7631 5.33398 15.6582C4.97125 15.5548 4.61622 15.3998 4.3418 15.1504C3.88079 14.7313 3.64151 14.2779 3.53125 13.6465C3.43128 13.0737 3.43359 12.3218 3.43359 11.3086C3.43368 11.0987 3.54216 10.9033 3.7207 10.793ZM13.0439 13.8359L14.54 14.3975L16.0361 13.8359L14.54 11.5928L13.0439 13.8359ZM4.84473 1.00977C5.17924 1.00977 5.45104 1.28075 5.45117 1.61523V2.2207H6.35938C7.19567 2.2207 7.87373 2.89912 7.87402 3.73535V4.3418C7.87396 4.6832 7.759 4.99673 7.56836 5.25C7.75922 5.50337 7.87397 5.81755 7.87402 6.15918V6.76465C7.87402 7.60113 7.19586 8.2793 6.35938 8.2793H5.45117V8.88477C5.45117 9.21936 5.17932 9.49121 4.84473 9.49121C4.51036 9.49095 4.23926 9.2192 4.23926 8.88477V8.2793H2.42188C2.08737 8.2793 1.81654 8.0083 1.81641 7.67383C1.81654 7.33935 2.08736 7.06738 2.42188 7.06738H2.72461V3.43262H2.42188C2.08736 3.43262 1.81654 3.16163 1.81641 2.82715C1.81654 2.49267 2.08736 2.2207 2.42188 2.2207H4.23926V1.61523C4.23939 1.28092 4.51044 1.01003 4.84473 1.00977ZM9.69141 3.43359C10.8243 3.43359 11.9145 3.43276 12.8105 3.5166C13.2603 3.55869 13.6834 3.62353 14.0518 3.72852C14.4145 3.83194 14.7696 3.9869 15.0439 4.23633C15.5047 4.65538 15.7433 5.10894 15.8535 5.74023C15.9535 6.31299 15.9521 7.06504 15.9521 8.07812C15.952 8.28794 15.8426 8.48344 15.6641 8.59375C15.4857 8.70375 15.2627 8.71369 15.0752 8.62012L13.459 7.8125C13.1599 7.66286 13.039 7.29821 13.1885 6.99902C13.3382 6.69994 13.7018 6.57901 14.001 6.72852L14.7334 7.09473C14.7264 6.59244 14.7099 6.23318 14.6602 5.94824C14.593 5.56375 14.477 5.35878 14.2285 5.13281C14.1481 5.0597 13.9925 4.9716 13.7188 4.89355C13.4505 4.81716 13.1099 4.7612 12.6982 4.72266C11.8706 4.6452 10.8432 4.64453 9.69141 4.64453C9.35689 4.64453 9.08607 4.37354 9.08594 4.03906C9.08594 3.70447 9.35681 3.43359 9.69141 3.43359ZM3.93652 7.06738H6.35938C6.52667 7.06738 6.66309 6.93194 6.66309 6.76465V6.15918C6.66295 5.992 6.52659 5.85645 6.35938 5.85645H3.93652V7.06738ZM3.93652 4.64453H6.35938L6.4209 4.63867C6.55883 4.61044 6.66294 4.48804 6.66309 4.3418V3.73535C6.66279 3.56831 6.52649 3.43262 6.35938 3.43262H3.93652V4.64453Z" fill="url(#paint0_linear_1318_788)"/>
<defs>
<linearGradient id="paint0_linear_1318_788" x1="9.69291" y1="1.00977" x2="9.69291" y2="18.377" gradientUnits="userSpaceOnUse">
<stop stop-color="white"/>
<stop offset="1" stop-color="#999999"/>
</linearGradient>
</defs>
</svg>
