<svg width="36" height="36" viewBox="0 0 36 36" fill="none" xmlns="http://www.w3.org/2000/svg">
<path d="M0 14C0 6.26801 6.26801 0 14 0H22C29.732 0 36 6.26801 36 14V22C36 29.732 29.732 36 22 36H14C6.26801 36 0 29.732 0 22V14Z" fill="white" fill-opacity="0.03"/>
<path d="M14 0.5H22C29.4558 0.5 35.5 6.54416 35.5 14V22C35.5 29.4558 29.4558 35.5 22 35.5H14C6.54416 35.5 0.5 29.4558 0.5 22V14C0.5 6.54416 6.54416 0.5 14 0.5Z" stroke="url(#paint0_linear_1318_6521)" stroke-opacity="0.6"/>
<path d="M20.3646 12.213C19.4842 11.8863 19.0933 10.5785 18.0898 10.5034C18.0302 10.4989 17.9702 10.4989 17.9106 10.5034C16.9072 10.5786 16.5163 11.8862 15.6358 12.213C14.7036 12.5589 13.4289 11.8499 12.6395 12.6393C11.8798 13.3991 12.5521 14.7224 12.2133 15.6356C11.8669 16.5686 10.4185 16.9546 10.5036 18.0896C10.5788 19.0931 11.8865 19.484 12.2133 20.3644C12.5521 21.2775 11.8797 22.601 12.6395 23.3607C13.4288 24.1501 14.7036 23.4413 15.6358 23.7869C16.516 24.1142 16.9073 25.4216 17.9106 25.4966C17.9702 25.5011 18.0302 25.5011 18.0898 25.4966C19.0931 25.4216 19.4845 24.1141 20.3646 23.7869C21.2778 23.4484 22.6013 24.1205 23.3609 23.3607C24.1764 22.5454 23.3907 21.2236 23.8215 20.2815C24.2197 19.4141 25.5797 19.0079 25.4969 17.9104C25.4218 16.9071 24.1144 16.5158 23.7871 15.6356C23.4415 14.7033 24.1503 13.4285 23.3609 12.6393C22.5716 11.8499 21.2968 12.559 20.3646 12.213Z" stroke="white" stroke-width="1.5"/>
<path d="M18.1816 21V18C18.1816 17.6465 18.1816 17.4697 18.0718 17.3598C17.962 17.25 17.7852 17.25 17.4316 17.25" stroke="white" stroke-width="1.5" stroke-linecap="round" stroke-linejoin="round"/>
<path d="M17.9941 15H18.0009" stroke="white" stroke-width="2" stroke-linecap="round" stroke-linejoin="round"/>
<defs>
<linearGradient id="paint0_linear_1318_6521" x1="18" y1="0" x2="18" y2="14.7273" gradientUnits="userSpaceOnUse">
<stop stop-color="white"/>
<stop offset="1" stop-color="white" stop-opacity="0.07"/>
</linearGradient>
</defs>
</svg>
