<svg width="24" height="24" viewBox="0 0 24 24" fill="none" xmlns="http://www.w3.org/2000/svg">
<path d="M3 12C3 10.8181 3.23279 9.64778 3.68508 8.55585C4.13738 7.46392 4.80031 6.47177 5.63604 5.63604C6.47177 4.80031 7.46392 4.13738 8.55585 3.68508C9.64778 3.23279 10.8181 3 12 3C13.1819 3 14.3522 3.23279 15.4442 3.68508C16.5361 4.13738 17.5282 4.80031 18.364 5.63604C19.1997 6.47177 19.8626 7.46392 20.3149 8.55585C20.7672 9.64778 21 10.8181 21 12C21 14.3869 20.0518 16.6761 18.364 18.364C16.6761 20.0518 14.3869 21 12 21C9.61305 21 7.32387 20.0518 5.63604 18.364C3.94821 16.6761 3 14.3869 3 12Z" fill="url(#paint0_linear_1318_6458)"/>
<path d="M12 15C11.7016 15 11.4155 15.1185 11.2045 15.3295C10.9935 15.5405 10.875 15.8266 10.875 16.125C10.875 16.4234 10.9935 16.7095 11.2045 16.9205C11.4155 17.1315 11.7016 17.25 12 17.25C12.2984 17.25 12.5845 17.1315 12.7955 16.9205C13.0065 16.7095 13.125 16.4234 13.125 16.125C13.125 15.8266 13.0065 15.5405 12.7955 15.3295C12.5845 15.1185 12.2984 15 12 15ZM12 6.75C11.8245 6.74994 11.6545 6.81146 11.5196 6.92383C11.3848 7.03621 11.2936 7.19233 11.262 7.365L11.25 7.5V12.75L11.262 12.885C11.2933 13.0579 11.3843 13.2144 11.5192 13.327C11.6541 13.4397 11.8243 13.5014 12 13.5014C12.1757 13.5014 12.3459 13.4397 12.4808 13.327C12.6157 13.2144 12.7067 13.0579 12.738 12.885L12.75 12.75V7.5L12.738 7.365C12.7064 7.19233 12.6152 7.03621 12.4804 6.92383C12.3455 6.81146 12.1755 6.74994 12 6.75Z" fill="url(#paint1_linear_1318_6458)"/>
<defs>
<linearGradient id="paint0_linear_1318_6458" x1="5.8125" y1="0.1875" x2="17.625" y2="22.6875" gradientUnits="userSpaceOnUse">
<stop stop-color="#FFCD0F"/>
<stop offset="1" stop-color="#FE8401"/>
</linearGradient>
<linearGradient id="paint1_linear_1318_6458" x1="9" y1="6.75" x2="13.8195" y2="17.766" gradientUnits="userSpaceOnUse">
<stop stop-color="#4A4A4A"/>
<stop offset="1" stop-color="#212121"/>
</linearGradient>
</defs>
</svg>
