<svg width="20" height="20" viewBox="0 0 20 20" fill="none" xmlns="http://www.w3.org/2000/svg">
<path fill-rule="evenodd" clip-rule="evenodd" d="M14.4707 1.01856C14.7743 1.01856 15.2937 0.985633 15.7451 1.0459C16.2257 1.11014 16.7824 1.29272 17.1709 1.81739C17.4 2.12696 17.4889 2.47784 17.5293 2.84766C17.5684 3.20658 17.5674 3.65321 17.5674 4.18262C17.5674 4.63566 17.568 5.01294 17.542 5.32422C17.5151 5.64559 17.4573 5.93914 17.3203 6.22461C17.096 6.69168 16.7414 7.00572 16.3936 7.23536C16.0614 7.45455 15.6736 7.63322 15.4023 7.77247L12.4072 9.31055C11.8185 9.61284 11.3413 9.85824 10.9307 10.0244C10.8125 10.0722 10.6959 10.1129 10.5811 10.1494C10.7641 10.2439 10.9665 10.3628 11.1885 10.4941L11.9961 10.9727C12.2869 11.1446 12.5444 11.2956 12.7461 11.4443C12.9595 11.6017 13.1481 11.7824 13.2871 12.0322C13.4251 12.2804 13.4807 12.5368 13.5059 12.8027C13.5299 13.0567 13.5293 13.3629 13.5293 13.7148V14.5566C13.5293 14.9085 13.5298 15.2148 13.5059 15.4688C13.4807 15.7349 13.4251 15.9919 13.2871 16.2402C13.1482 16.49 12.9594 16.6698 12.7461 16.8272C12.5444 16.9759 12.2869 17.1278 11.9961 17.2998L11.1885 17.7773C10.9086 17.9429 10.6608 18.09 10.4424 18.1914C10.2121 18.2984 9.97036 18.3769 9.69239 18.377C9.41423 18.377 9.17183 18.2984 8.94141 18.1914C8.72304 18.0899 8.47514 17.9429 8.19532 17.7773L7.3877 17.2998C7.0969 17.1278 6.83942 16.9759 6.6377 16.8272C6.42457 16.6699 6.23652 16.4898 6.09766 16.2402C5.95963 15.992 5.90408 15.7349 5.87891 15.4688C5.85494 15.2148 5.85547 14.9085 5.85547 14.5566V13.7148C5.85547 13.3629 5.85489 13.0566 5.87891 12.8027C5.90412 12.5367 5.9596 12.2804 6.09766 12.0322C6.23662 11.7825 6.42438 11.6017 6.6377 11.4443C6.8394 11.2956 7.09698 11.1446 7.3877 10.9727L8.19532 10.4941C8.41711 10.3629 8.61895 10.2439 8.80176 10.1494C8.68722 10.113 8.57105 10.0721 8.45313 10.0244C8.04248 9.85824 7.56527 9.61284 6.97657 9.31055L3.98145 7.77247C3.71023 7.63322 3.32238 7.45455 2.99024 7.23536C2.64238 7.00572 2.28774 6.69168 2.06348 6.22461C1.92648 5.93913 1.86866 5.6456 1.8418 5.32422C1.81583 5.01294 1.81641 4.63565 1.81641 4.18262C1.81641 3.65321 1.81536 3.20657 1.85449 2.84766C1.89487 2.47784 1.98383 2.12697 2.21289 1.81739C2.60136 1.29269 3.15803 1.11013 3.63867 1.0459C4.09005 0.985632 4.60947 1.01856 4.91309 1.01856H6.78223C6.8101 1.01464 6.83824 1.00977 6.86719 1.00977C6.89614 1.00977 6.92429 1.01464 6.95215 1.01856H12.4365C12.4644 1.01463 12.4925 1.00978 12.5215 1.00977C12.5504 1.00977 12.5786 1.01464 12.6064 1.01856H14.4707ZM9.69239 11.1065C9.65322 11.1065 9.59092 11.1143 9.45215 11.1787C9.30108 11.2489 9.1128 11.3595 8.8125 11.5371L8.00489 12.0156C7.69341 12.1999 7.49833 12.316 7.35742 12.4199C7.22855 12.515 7.183 12.5731 7.15625 12.6211C7.12869 12.6707 7.10122 12.7455 7.08496 12.917C7.06757 13.1008 7.06641 13.3404 7.06641 13.7148V14.5566C7.06641 14.9309 7.06764 15.1707 7.08496 15.3545C7.10118 15.5259 7.12873 15.6018 7.15625 15.6514C7.18298 15.6993 7.2287 15.7576 7.35742 15.8525C7.4983 15.9564 7.69354 16.0727 8.00489 16.2568L8.8125 16.7344C9.11291 16.9121 9.30105 17.0226 9.45215 17.0928C9.59116 17.1573 9.65319 17.165 9.69239 17.165C9.73162 17.165 9.79385 17.1572 9.93262 17.0928C10.0836 17.0226 10.2712 16.9119 10.5713 16.7344L11.3799 16.2568C11.6913 16.0726 11.8865 15.9564 12.0273 15.8525C12.1558 15.7578 12.2008 15.6993 12.2275 15.6514C12.2551 15.6018 12.2826 15.5259 12.2988 15.3545C12.3162 15.1707 12.3174 14.9309 12.3174 14.5566V13.7148C12.3174 13.3404 12.3162 13.1008 12.2988 12.917C12.2826 12.7455 12.2551 12.6706 12.2275 12.6211C12.2008 12.5731 12.1558 12.5147 12.0273 12.4199C11.8865 12.3161 11.6911 12.1997 11.3799 12.0156L10.5713 11.5371C10.2712 11.3596 10.0836 11.2489 9.93262 11.1787C9.79397 11.1143 9.73161 11.1065 9.69239 11.1065ZM7.47266 8.20215L7.53028 8.23243C8.13793 8.54444 8.55876 8.76035 8.90723 8.90137C9.24435 9.03778 9.47457 9.08685 9.69141 9.08692C9.9084 9.08692 10.1392 9.03789 10.4766 8.90137C10.825 8.76035 11.2458 8.54445 11.8535 8.23243L11.916 8.2002V2.23047H7.47266V8.20215ZM4.91309 2.23047C4.48091 2.23047 4.14424 2.19998 3.79883 2.2461C3.48323 2.2883 3.30118 2.38335 3.18653 2.53809C3.138 2.60375 3.08769 2.71307 3.0586 2.9795C3.02833 3.25745 3.02735 3.62631 3.02735 4.18262C3.02735 4.65547 3.02804 4.97433 3.04883 5.22364C3.06879 5.4622 3.1052 5.59573 3.15528 5.7002C3.25093 5.89944 3.41426 6.06421 3.65723 6.22461C3.91582 6.39527 4.19257 6.51896 4.53418 6.69434L6.26172 7.58106V2.23047H4.91309ZM14.4707 2.23047H13.1279V7.57813L14.8496 6.69434C15.1912 6.51895 15.468 6.39528 15.7266 6.22461C15.9695 6.06421 16.1328 5.89946 16.2285 5.7002C16.2786 5.59573 16.315 5.46219 16.335 5.22364C16.3558 4.97432 16.3564 4.65547 16.3564 4.18262C16.3564 3.6263 16.3555 3.25745 16.3252 2.9795C16.2961 2.71308 16.2458 2.60375 16.1973 2.53809C16.0826 2.38328 15.8998 2.28828 15.584 2.2461C15.2388 2.20008 14.9027 2.23047 14.4707 2.23047Z" fill="url(#paint0_linear_1318_829)"/>
<defs>
<linearGradient id="paint0_linear_1318_829" x1="9.6919" y1="1.00958" x2="9.6919" y2="18.377" gradientUnits="userSpaceOnUse">
<stop stop-color="white"/>
<stop offset="1" stop-color="#999999"/>
</linearGradient>
</defs>
</svg>
