<svg width="18" height="18" viewBox="0 0 18 18" fill="none" xmlns="http://www.w3.org/2000/svg">
<path d="M9.00049 16.5006L7.50049 12.0006H1.50049L3.00049 16.5006H9.00049ZM9.00049 16.5006H12.0005" stroke="white" stroke-width="1.21" stroke-linecap="round" stroke-linejoin="round"/>
<path d="M8.99951 9.75058V9.37558C8.99951 7.96138 8.99951 7.25426 8.56016 6.81492C8.12081 6.37558 7.41373 6.37558 5.99951 6.37558C4.5853 6.37558 3.87819 6.37558 3.43885 6.81492C2.99951 7.25426 2.99951 7.96138 2.99951 9.37558V9.75058" stroke="white" stroke-width="1.21" stroke-linecap="round" stroke-linejoin="round"/>
<path d="M14.25 9.74942C14.25 10.5779 13.5784 11.2494 12.75 11.2494C11.9215 11.2494 11.25 10.5779 11.25 9.74942C11.25 8.92097 11.9215 8.24942 12.75 8.24942C13.5784 8.24942 14.25 8.92097 14.25 9.74942Z" stroke="white" stroke-width="1.21"/>
<path d="M7.5 2.99942C7.5 3.82785 6.82843 4.49942 6 4.49942C5.17157 4.49942 4.5 3.82785 4.5 2.99942C4.5 2.17099 5.17157 1.49942 6 1.49942C6.82843 1.49942 7.5 2.17099 7.5 2.99942Z" stroke="white" stroke-width="1.21"/>
<path d="M10.5005 13.1256H15.0005C15.8289 13.1256 16.5005 13.7971 16.5005 14.6256V15.0006C16.5005 15.829 15.8289 16.5006 15.0005 16.5006H14.2505" stroke="white" stroke-width="1.21" stroke-linecap="round"/>
</svg>
