<svg width="16" height="16" viewBox="0 0 16 16" fill="none" xmlns="http://www.w3.org/2000/svg">
<path d="M7.11802 13.5808H6.21196C3.89335 13.5808 2.73405 13.5808 2.01375 12.8469C1.29346 12.1129 1.29346 10.9315 1.29346 8.56885C1.29346 6.2062 1.29346 5.02486 2.01375 4.29087C2.73405 3.55688 3.89335 3.55688 6.21196 3.55688H8.67122C10.9898 3.55688 12.1491 3.55688 12.8694 4.29087C13.4236 4.85559 13.5514 5.68513 13.5809 7.11376" stroke="white" stroke-width="0.97006" stroke-linecap="round"/>
<path d="M11.0658 8.5722C11.1852 8.4622 11.2449 8.40723 11.3174 8.40723C11.3899 8.40723 11.4496 8.4622 11.569 8.5722L12.0299 8.99683C12.0855 9.04811 12.1134 9.07379 12.148 9.08646C12.1826 9.0992 12.2204 9.09772 12.2961 9.09474L12.9188 9.07029C13.0791 9.06396 13.1593 9.06085 13.2142 9.10703C13.2692 9.1532 13.2799 9.23275 13.3013 9.39177L13.3871 10.029C13.397 10.1026 13.402 10.1394 13.4199 10.1709C13.4379 10.2023 13.467 10.2252 13.5254 10.2712L14.027 10.666C14.1511 10.7638 14.2131 10.8126 14.2254 10.8824C14.2377 10.9523 14.1961 11.0193 14.1128 11.1536L13.7726 11.7017C13.7337 11.7645 13.7143 11.7958 13.7081 11.8313C13.7019 11.8667 13.7096 11.9028 13.7249 11.975L13.8599 12.6077C13.893 12.7632 13.9096 12.8409 13.874 12.9027C13.8384 12.9644 13.7628 12.989 13.6117 13.0382L13.0131 13.2332C12.9417 13.2564 12.906 13.2681 12.8782 13.2917C12.8503 13.3153 12.833 13.3486 12.7985 13.4153L12.506 13.9789C12.4315 14.1225 12.3942 14.1943 12.3263 14.219C12.2584 14.2438 12.1837 14.2128 12.0342 14.1508L11.4597 13.9125C11.3894 13.8834 11.3544 13.8689 11.3174 13.8689C11.2804 13.8689 11.2453 13.8834 11.1751 13.9125L10.6006 14.1508C10.4511 14.2128 10.3764 14.2438 10.3085 14.219C10.2406 14.1943 10.2033 14.1225 10.1287 13.9789L9.8363 13.4153C9.80177 13.3486 9.7845 13.3153 9.75663 13.2917C9.72876 13.2681 9.69306 13.2564 9.62173 13.2332L9.02307 13.0382C8.87193 12.989 8.79633 12.9644 8.76076 12.9027C8.72513 12.8409 8.74175 12.7632 8.77486 12.6077L8.90983 11.975C8.92522 11.9028 8.93292 11.8667 8.92671 11.8313C8.9205 11.7958 8.9011 11.7645 8.86217 11.7017L8.522 11.1536C8.43871 11.0193 8.39706 10.9523 8.40934 10.8824C8.42163 10.8126 8.48372 10.7638 8.60782 10.666L9.10934 10.2712C9.16774 10.2252 9.1969 10.2023 9.21488 10.1709C9.2328 10.1394 9.23778 10.1026 9.24767 10.029L9.33349 9.39177C9.35489 9.23275 9.36557 9.1532 9.42054 9.10703C9.47551 9.06085 9.5557 9.06396 9.71602 9.07029L10.3387 9.09474C10.4144 9.09772 10.4522 9.0992 10.4868 9.08646C10.5214 9.07379 10.5492 9.04811 10.6049 8.99683L11.0658 8.5722Z" stroke="white" stroke-width="0.97006"/>
<path d="M10.3474 3.55693L10.2831 3.35706C9.96296 2.3611 9.8029 1.86312 9.4218 1.57829C9.04076 1.29346 8.53458 1.29346 7.52222 1.29346H7.35208C6.33972 1.29346 5.83355 1.29346 5.45249 1.57829C5.07141 1.86312 4.91135 2.3611 4.59122 3.35706L4.52698 3.55693" stroke="white" stroke-width="0.97006"/>
</svg>
