<svg width="20" height="20" viewBox="0 0 20 20" fill="none" xmlns="http://www.w3.org/2000/svg">
<path d="M9.69333 1.61554C6.57047 1.61554 4.03888 4.14712 4.03888 7.26999C4.03888 10.3929 6.57047 12.9244 9.69333 12.9244C12.8162 12.9244 15.3478 10.3929 15.3478 7.26999C15.3478 4.14713 12.8162 1.61554 9.69333 1.61554Z" stroke="white" stroke-width="1.21167" stroke-linecap="round" stroke-linejoin="round"/>
<path d="M12.1167 14.54C10.5011 14.54 9.69336 15.7517 9.69336 15.7517C9.69336 15.7517 10.5011 16.9634 12.1167 16.9634C13.7323 16.9634 14.54 15.7517 14.54 15.7517C14.54 15.7517 13.7323 14.54 12.1167 14.54Z" stroke="white" stroke-width="1.21167" stroke-linecap="round" stroke-linejoin="round"/>
<path d="M7.27002 14.54C5.65446 14.54 4.84668 15.7517 4.84668 15.7517C4.84668 15.7517 5.65446 16.9634 7.27002 16.9634C8.88557 16.9634 9.69335 15.7517 9.69335 15.7517C9.69335 15.7517 8.88557 14.54 7.27002 14.54Z" stroke="white" stroke-width="1.21167" stroke-linecap="round" stroke-linejoin="round"/>
<path d="M9.69336 17.7711V12.9244" stroke="white" stroke-width="1.21167" stroke-linecap="round" stroke-linejoin="round"/>
<path d="M8.43118 9.4241V5.11591M9.69334 5.11591V4.03888M9.69334 10.5011V9.4241M8.43118 7.26999H10.9555M10.9555 7.26999C11.3738 7.26999 11.7128 7.63165 11.7128 8.07777V8.61632C11.7128 9.06245 11.3738 9.4241 10.9555 9.4241H7.67389M10.9555 7.26999C11.3738 7.26999 11.7128 6.90834 11.7128 6.46222V5.92369C11.7128 5.47757 11.3738 5.11591 10.9555 5.11591H7.67389" stroke="white" stroke-width="1.21167" stroke-linecap="round" stroke-linejoin="round"/>
</svg>
