<svg width="20" height="20" viewBox="0 0 20 20" fill="none" xmlns="http://www.w3.org/2000/svg">
<path fill-rule="evenodd" clip-rule="evenodd" d="M16.1638 5.85645C16.2015 5.85699 16.2391 5.86065 16.2761 5.86816C16.2869 5.87031 16.2969 5.87522 16.3074 5.87793C16.334 5.88486 16.3608 5.89173 16.3865 5.90234C16.6067 5.99287 16.7614 6.20898 16.7615 6.46191V10.501C16.7614 10.8354 16.4905 11.1064 16.156 11.1064C15.8217 11.1062 15.5497 10.8353 15.5496 10.501V7.92285L12.5437 10.9287C12.1979 11.2745 11.9015 11.5735 11.6335 11.7842C11.3549 12.0033 11.0463 12.1783 10.6638 12.2129C10.5553 12.2227 10.4452 12.2227 10.3367 12.2129C9.95437 12.1782 9.64553 12.0032 9.36694 11.7842C9.09905 11.5735 8.80148 11.2744 8.45581 10.9287C8.08919 10.5621 7.85074 10.3253 7.65308 10.1699C7.46661 10.0234 7.37763 10 7.323 9.99512C7.28723 9.99193 7.25036 9.99188 7.2146 9.99512C7.15985 10.0002 7.07083 10.0234 6.88452 10.1699C6.68679 10.3254 6.44864 10.5618 6.08179 10.9287L3.65894 13.3525C3.42234 13.589 3.03807 13.5891 2.80151 13.3525C2.56558 13.1161 2.56553 12.7326 2.80151 12.4961L5.22534 10.0723C5.57093 9.72667 5.86763 9.42847 6.1355 9.21777C6.41425 8.99859 6.72363 8.82365 7.1062 8.78906C7.21457 8.77928 7.32401 8.77929 7.43237 8.78906L7.57202 8.80762C7.89127 8.86716 8.15815 9.02602 8.4021 9.21777C8.67002 9.42845 8.96753 9.72657 9.31323 10.0723C9.67998 10.439 9.91828 10.6755 10.116 10.8311C10.3024 10.9776 10.3913 11.0008 10.446 11.0059H10.5544C10.6091 11.0009 10.6977 10.978 10.8845 10.8311C11.0823 10.6755 11.3203 10.4392 11.6873 10.0723L14.6921 7.06738H12.1169C11.7826 7.06714 11.5115 6.79635 11.5115 6.46191C11.5116 6.12759 11.7826 5.85669 12.1169 5.85645H16.1638Z" fill="url(#paint0_linear_1318_710)"/>
<defs>
<linearGradient id="paint0_linear_1318_710" x1="9.69309" y1="5.85645" x2="9.69309" y2="13.53" gradientUnits="userSpaceOnUse">
<stop stop-color="white"/>
<stop offset="1" stop-color="#999999"/>
</linearGradient>
</defs>
</svg>
