<svg width="20" height="20" viewBox="0 0 20 20" fill="none" xmlns="http://www.w3.org/2000/svg">
<path fill-rule="evenodd" clip-rule="evenodd" d="M2.80196 6.03348C3.03856 5.79697 3.42281 5.79692 3.65938 6.03348L6.08223 8.45731C6.4491 8.82419 6.68722 9.06058 6.88496 9.2161C7.07162 9.36284 7.16034 9.38594 7.21504 9.3909H7.32344L7.37227 9.38212C7.42893 9.36672 7.51359 9.32611 7.65352 9.2161C7.85125 9.0606 8.08941 8.82416 8.45625 8.45731C8.80197 8.1116 9.09946 7.81354 9.36739 7.60282C9.6462 7.38358 9.95532 7.20761 10.3381 7.17313C10.4462 7.16343 10.5551 7.16342 10.6633 7.17313C11.046 7.20766 11.3552 7.38358 11.634 7.60282C11.9018 7.81352 12.1985 8.1117 12.5441 8.45731L15.55 11.4632V8.88505C15.5502 8.55065 15.822 8.27958 16.1564 8.27958C16.4907 8.27978 16.7617 8.55078 16.7619 8.88505V12.9241C16.7618 13.1782 16.6048 13.3948 16.383 13.4847C16.3782 13.4866 16.3732 13.4877 16.3684 13.4895C16.3371 13.5013 16.3052 13.5114 16.2717 13.5179C16.2298 13.5261 16.1873 13.5303 16.1447 13.5296H12.1174C11.7828 13.5296 11.512 13.2586 11.5119 12.9241C11.5122 12.5897 11.7829 12.3177 12.1174 12.3177H14.6916L11.6877 9.31376C11.3208 8.94686 11.0827 8.7105 10.885 8.55497C10.6982 8.40814 10.6096 8.38513 10.5549 8.38016C10.5189 8.37693 10.4825 8.37694 10.4465 8.38016C10.3918 8.38509 10.3033 8.40802 10.1164 8.55497C9.91865 8.71049 9.68062 8.94681 9.31367 9.31376C8.96788 9.65955 8.67052 9.95751 8.40254 10.1682C8.15851 10.3601 7.89183 10.5188 7.57246 10.5784L7.43282 10.5979C7.3244 10.6077 7.21506 10.6077 7.10664 10.5979C6.72394 10.5635 6.41476 10.3875 6.13594 10.1682C5.86806 9.95755 5.57138 9.65937 5.22578 9.31376L2.80196 6.8909C2.56536 6.65431 2.56536 6.27008 2.80196 6.03348Z" fill="url(#paint0_linear_1318_750)"/>
<defs>
<linearGradient id="paint0_linear_1318_750" x1="9.69321" y1="5.85608" x2="9.69321" y2="13.5297" gradientUnits="userSpaceOnUse">
<stop stop-color="white"/>
<stop offset="1" stop-color="#999999"/>
</linearGradient>
</defs>
</svg>
