<svg width="16" height="16" viewBox="0 0 16 16" fill="none" xmlns="http://www.w3.org/2000/svg">
<path d="M6.46705 3.88025C4.02816 3.88025 2.80873 3.88025 2.05106 4.63791C1.2934 5.39558 1.2934 6.61504 1.2934 9.0539C1.2934 11.4928 1.2934 12.7123 2.05106 13.4699C2.80873 14.2276 4.02816 14.2276 6.46705 14.2276H9.05387C11.4927 14.2276 12.7122 14.2276 13.4698 13.4699C14.2275 12.7123 14.2275 11.4928 14.2275 9.0539C14.2275 8.29738 14.2275 7.65824 14.2049 7.11378" stroke="white" stroke-width="0.97006" stroke-linecap="round" stroke-linejoin="round"/>
<path d="M11.6407 1.29346L11.8314 1.80862C12.0813 2.48415 12.2063 2.82192 12.4527 3.06831C12.6991 3.31471 13.0368 3.43969 13.7124 3.68965L14.2275 3.88028L13.7124 4.07091C13.0368 4.32088 12.6991 4.44586 12.4527 4.69226C12.2063 4.93865 12.0813 5.27641 11.8314 5.95194L11.6407 6.46711L11.4501 5.95194C11.2001 5.27641 11.0751 4.93865 10.8287 4.69226C10.5823 4.44586 10.2446 4.32088 9.56906 4.07091L9.05389 3.88028L9.56906 3.68965C10.2446 3.43969 10.5823 3.31471 10.8287 3.06831C11.0751 2.82192 11.2001 2.48415 11.4501 1.80862L11.6407 1.29346Z" stroke="white" stroke-width="0.97006" stroke-linejoin="round"/>
</svg>
