<svg width="1104" height="367" viewBox="0 0 1104 367" fill="none" xmlns="http://www.w3.org/2000/svg">
<g clip-path="url(#clip0_117_439)">
<rect width="1104" height="367" rx="20" fill="url(#paint0_linear_117_439)"/>
<g filter="url(#filter0_f_117_439)">
<path d="M704.452 -91.2332C655.891 23.0469 581.844 138.413 569.105 133C556.367 127.587 617.047 7.78 665.608 -106.5C714.169 -220.78 756.575 -313.37 769.313 -307.957C782.052 -302.544 753.013 -205.513 704.452 -91.2332Z" fill="#14FCF2" fill-opacity="0.25"/>
</g>
<g filter="url(#filter1_f_117_439)">
<ellipse cx="866.907" cy="-111.411" rx="41.0681" ry="318.93" transform="rotate(23.0221 866.907 -111.411)" fill="#14FCF2" fill-opacity="0.25"/>
</g>
</g>
<rect x="0.5" y="0.5" width="1103" height="366" rx="19.5" stroke="url(#paint1_linear_117_439)"/>
<defs>
<filter id="filter0_f_117_439" x="467.387" y="-408.183" width="404.923" height="641.366" filterUnits="userSpaceOnUse" color-interpolation-filters="sRGB">
<feFlood flood-opacity="0" result="BackgroundImageFix"/>
<feBlend mode="normal" in="SourceGraphic" in2="BackgroundImageFix" result="shape"/>
<feGaussianBlur stdDeviation="50" result="effect1_foregroundBlur_117_439"/>
</filter>
<filter id="filter1_f_117_439" x="636.542" y="-505.386" width="460.729" height="787.95" filterUnits="userSpaceOnUse" color-interpolation-filters="sRGB">
<feFlood flood-opacity="0" result="BackgroundImageFix"/>
<feBlend mode="normal" in="SourceGraphic" in2="BackgroundImageFix" result="shape"/>
<feGaussianBlur stdDeviation="50" result="effect1_foregroundBlur_117_439"/>
</filter>
<linearGradient id="paint0_linear_117_439" x1="552" y1="0" x2="552" y2="367" gradientUnits="userSpaceOnUse">
<stop stop-color="#011314"/>
<stop offset="0.85" stop-color="#011515"/>
<stop offset="1" stop-color="#092A2D" stop-opacity="0.7"/>
</linearGradient>
<linearGradient id="paint1_linear_117_439" x1="1094.3" y1="4.97168" x2="818.044" y2="261.659" gradientUnits="userSpaceOnUse">
<stop stop-color="#86B4B4"/>
<stop offset="1" stop-color="#3A4E4E" stop-opacity="0.1"/>
</linearGradient>
<clipPath id="clip0_117_439">
<rect width="1104" height="367" rx="20" fill="white"/>
</clipPath>
</defs>
</svg>
