<svg width="44" height="44" viewBox="0 0 44 44" fill="none" xmlns="http://www.w3.org/2000/svg">
<g clip-path="url(#clip0_1318_1256)">
<rect width="44" height="44" rx="16" fill="white" fill-opacity="0.07"/>
<g filter="url(#filter0_f_1318_1256)">
<ellipse cx="22.5" cy="43" rx="14.5" ry="4" fill="#CCF2F0" fill-opacity="0.65"/>
</g>
<path fill-rule="evenodd" clip-rule="evenodd" d="M20.1548 24.4033C20.3746 24.4386 20.5613 24.5934 20.6333 24.8096L21.9956 28.8955H24.5591C24.893 28.8957 25.1646 29.167 25.1646 29.501C25.1643 29.8348 24.8929 30.1062 24.5591 30.1064H15.5591C15.2988 30.1064 15.0674 29.9392 14.9849 29.6924L13.4849 25.1924C13.4234 25.008 13.4544 24.8052 13.5679 24.6475C13.6816 24.4897 13.8646 24.3955 14.0591 24.3955H20.0591L20.1548 24.4033ZM27.5591 25.5205C28.7215 25.5207 29.6646 26.4635 29.6646 27.626V28.001C29.6643 29.1632 28.7213 30.1062 27.5591 30.1064H26.8091C26.4751 30.1064 26.2038 29.8349 26.2036 29.501C26.2036 29.1668 26.475 28.8955 26.8091 28.8955H27.5591C28.0531 28.8953 28.4534 28.495 28.4536 28.001V27.626C28.4536 27.1318 28.0532 26.7317 27.5591 26.7314H23.0591C22.7251 26.7314 22.4538 26.4599 22.4536 26.126C22.4536 25.7918 22.725 25.5205 23.0591 25.5205H27.5591ZM15.9956 28.8955H20.7192L19.6226 25.6064H14.8989L15.9956 28.8955ZM25.3081 20.6436C26.4706 20.6436 27.4134 21.5866 27.4136 22.749C27.4136 23.9116 26.4707 24.8545 25.3081 24.8545C24.1456 24.8544 23.2026 23.9115 23.2026 22.749C23.2029 21.5867 24.1458 20.6437 25.3081 20.6436ZM25.3081 21.8545C24.814 21.8546 24.4138 22.255 24.4136 22.749C24.4136 23.2433 24.8139 23.6434 25.3081 23.6436C25.8024 23.6436 26.2026 23.2433 26.2026 22.749C26.2024 22.2549 25.8023 21.8545 25.3081 21.8545ZM18.5581 18.7705C19.2481 18.7705 19.8265 18.7695 20.2847 18.8311C20.7602 18.895 21.1956 19.0369 21.5464 19.3877C21.8971 19.7385 22.0391 20.174 22.103 20.6494C22.1646 21.1075 22.1636 21.6862 22.1636 22.376V22.751C22.1634 23.0849 21.8921 23.3564 21.5581 23.3564C21.2241 23.3564 20.9529 23.0849 20.9526 22.751V22.376C20.9526 21.652 20.952 21.1693 20.9038 20.8105C20.858 20.4695 20.7794 20.3317 20.6909 20.2432C20.6024 20.1546 20.4648 20.0762 20.1235 20.0303C19.7648 19.982 19.2823 19.9814 18.5581 19.9814C17.8339 19.9814 17.3515 19.982 16.9927 20.0303C16.6514 20.0762 16.5138 20.1547 16.4253 20.2432C16.3369 20.3317 16.2583 20.4695 16.2124 20.8105C16.1642 21.1693 16.1636 21.652 16.1636 22.376V22.751C16.1634 23.0849 15.8921 23.3564 15.5581 23.3564C15.2241 23.3564 14.9529 23.0849 14.9526 22.751V22.376C14.9526 21.6862 14.9516 21.1075 15.0132 20.6494C15.0771 20.1739 15.2191 19.7385 15.5698 19.3877C15.9206 19.0369 16.356 18.895 16.8315 18.8311C17.2897 18.7695 17.8681 18.7705 18.5581 18.7705ZM18.5581 13.8936C19.7205 13.8936 20.6634 14.8366 20.6636 15.999C20.6636 17.1616 19.7207 18.1045 18.5581 18.1045C17.3957 18.1044 16.4526 17.1615 16.4526 15.999C16.4529 14.8367 17.3958 13.8937 18.5581 13.8936ZM18.5581 15.1045C18.0641 15.1046 17.6638 15.505 17.6636 15.999C17.6636 16.4932 18.0639 16.8934 18.5581 16.8936C19.0524 16.8936 19.4526 16.4933 19.4526 15.999C19.4524 15.5049 19.0523 15.1045 18.5581 15.1045Z" fill="url(#paint0_linear_1318_1256)"/>
</g>
<rect x="0.5" y="0.5" width="43" height="43" rx="15.5" stroke="url(#paint1_linear_1318_1256)" stroke-opacity="0.4"/>
<defs>
<filter id="filter0_f_1318_1256" x="-2" y="29" width="49" height="28" filterUnits="userSpaceOnUse" color-interpolation-filters="sRGB">
<feFlood flood-opacity="0" result="BackgroundImageFix"/>
<feBlend mode="normal" in="SourceGraphic" in2="BackgroundImageFix" result="shape"/>
<feGaussianBlur stdDeviation="5" result="effect1_foregroundBlur_1318_1256"/>
</filter>
<linearGradient id="paint0_linear_1318_1256" x1="21.5592" y1="13.8936" x2="21.5592" y2="30.1064" gradientUnits="userSpaceOnUse">
<stop stop-color="white"/>
<stop offset="1" stop-color="#999999"/>
</linearGradient>
<linearGradient id="paint1_linear_1318_1256" x1="22" y1="0" x2="22" y2="26" gradientUnits="userSpaceOnUse">
<stop stop-color="white"/>
<stop offset="1" stop-color="white" stop-opacity="0"/>
</linearGradient>
<clipPath id="clip0_1318_1256">
<rect width="44" height="44" rx="16" fill="white"/>
</clipPath>
</defs>
</svg>
