<svg width="36" height="36" viewBox="0 0 36 36" fill="none" xmlns="http://www.w3.org/2000/svg">
<g clip-path="url(#clip0_138_456)">
<rect width="36" height="36" rx="14" fill="white" fill-opacity="0.07"/>
<g filter="url(#filter0_f_138_456)">
<ellipse cx="18" cy="34.5" rx="11" ry="3.5" fill="#CCF2F0" fill-opacity="0.65"/>
</g>
<line x1="10" y1="0.5" x2="26" y2="0.5" stroke="url(#paint0_linear_138_456)"/>
<path d="M16.0371 13.502C16.3131 13.5005 16.5384 13.723 16.54 13.999C16.5416 14.275 16.3189 14.5002 16.043 14.502C15.1002 14.5073 14.4067 14.5298 13.8652 14.6152C13.3331 14.6992 12.9854 14.8393 12.7139 15.0537C12.6027 15.1415 12.4999 15.2378 12.4072 15.3418C12.1495 15.6309 11.997 16.0103 11.916 16.6455C11.9083 16.7062 11.9019 16.7687 11.8955 16.833H16.668C16.944 16.833 17.1678 17.057 17.168 17.333C17.168 17.6092 16.9441 17.833 16.668 17.833H11.8418C11.8323 18.2639 11.832 18.7589 11.832 19.334C11.832 20.526 11.8333 21.3726 11.916 22.0215C11.997 22.6566 12.1496 23.0361 12.4072 23.3252C12.4999 23.4292 12.6026 23.5265 12.7139 23.6143C13.028 23.8622 13.4442 24.0102 14.1309 24.0879C14.8272 24.1666 15.7344 24.167 16.999 24.167H18.999C20.2635 24.167 21.1699 24.1666 21.8662 24.0879C22.5533 24.0102 22.97 23.8624 23.2842 23.6143C23.3954 23.5265 23.4971 23.4292 23.5898 23.3252C23.8476 23.0361 24.001 22.6567 24.082 22.0215C24.1648 21.3726 24.165 20.5259 24.165 19.334C24.165 19.1588 24.1653 18.992 24.165 18.8311C24.1648 18.5552 24.3882 18.3308 24.6641 18.3301C24.9402 18.3295 25.1646 18.5539 25.165 18.8301C25.1653 18.992 25.165 19.1613 25.165 19.334C25.165 20.4997 25.1659 21.4215 25.0732 22.1484C24.9788 22.8891 24.781 23.4931 24.3369 23.9912C24.2051 24.1391 24.0597 24.275 23.9033 24.3984C23.3811 24.8108 22.7532 24.9935 21.9785 25.0811C21.213 25.1675 20.24 25.167 18.999 25.167H16.999C15.7581 25.167 14.7851 25.1675 14.0195 25.0811C13.2448 24.9935 12.616 24.8109 12.0938 24.3984C11.9376 24.2751 11.7928 24.1389 11.6611 23.9912C11.217 23.4931 11.0183 22.8892 10.9238 22.1484C10.8311 21.4215 10.832 20.4997 10.832 19.334C10.832 18.1681 10.8311 17.2455 10.9238 16.5186C11.0183 15.7779 11.2171 15.1739 11.6611 14.6758C11.7928 14.5281 11.9376 14.3919 12.0938 14.2686C12.5444 13.9127 13.074 13.7282 13.709 13.6279C14.3347 13.5292 15.0987 13.5073 16.0371 13.502ZM17.668 21.5C17.9441 21.5 18.168 21.7239 18.168 22C18.168 22.2761 17.9441 22.5 17.668 22.5H16.668C16.3918 22.5 16.168 22.2761 16.168 22C16.168 21.7239 16.3918 21.5 16.668 21.5H17.668ZM22.001 21.5C22.2771 21.5 22.501 21.7239 22.501 22C22.501 22.2761 22.2771 22.5 22.001 22.5H19.668C19.3918 22.5 19.168 22.2761 19.168 22C19.168 21.7239 19.3918 21.5 19.668 21.5H22.001ZM21.333 10.833C23.4499 10.833 25.1667 12.5492 25.167 14.666C25.167 16.7831 23.4501 18.5 21.333 18.5C19.2161 18.4998 17.5 16.783 17.5 14.666C17.5003 12.5493 19.2163 10.8332 21.333 10.833ZM21.333 11.833C19.7686 11.8332 18.5003 13.1016 18.5 14.666C18.5 16.2307 19.7684 17.4998 21.333 17.5C22.8978 17.5 24.167 16.2308 24.167 14.666C24.1667 13.1015 22.8976 11.833 21.333 11.833ZM22.5 13.1953C22.7602 13.1034 23.0455 13.2399 23.1377 13.5C23.2297 13.7602 23.0941 14.0464 22.834 14.1387C22.6849 14.1915 22.4977 14.3114 22.2871 14.4961C22.0816 14.6763 21.8785 14.895 21.6973 15.1123C21.5171 15.3283 21.3634 15.5358 21.2549 15.6895C21.2009 15.766 21.1585 15.8292 21.1299 15.8721C21.1157 15.8933 21.1046 15.9102 21.0977 15.9209C21.0944 15.926 21.0923 15.9303 21.0908 15.9326C21.0902 15.9335 21.0892 15.9341 21.0889 15.9346C20.9922 16.0866 20.8205 16.1752 20.6406 16.166C20.461 16.1566 20.3003 16.0515 20.2197 15.8906C20.0829 15.6169 19.9679 15.5249 19.9307 15.5C19.9269 15.4975 19.9245 15.4938 19.9219 15.4922C19.6831 15.4546 19.5001 15.2493 19.5 15C19.5002 14.724 19.724 14.5 20 14.5V14.79C20.0001 14.5267 20.0006 14.5022 20.001 14.5H20.0078C20.0105 14.5 20.0137 14.5009 20.0166 14.501C20.0226 14.5012 20.0294 14.5015 20.0361 14.502C20.0496 14.5028 20.0647 14.5037 20.0811 14.5059C20.1139 14.5102 20.1519 14.5182 20.1943 14.5303C20.28 14.5548 20.3795 14.5974 20.4854 14.668C20.5437 14.7069 20.6024 14.7537 20.6611 14.8086C20.7417 14.7028 20.8321 14.5887 20.9297 14.4717C21.1307 14.2308 21.3694 13.9701 21.627 13.7441C21.8794 13.5227 22.1786 13.3092 22.5 13.1953ZM19.9492 15.4971C19.9558 15.4979 19.9633 15.4985 19.9717 15.499C19.9759 15.4993 19.9806 15.4999 19.9854 15.5H19.999C19.9757 15.5 19.9531 15.4963 19.9307 15.4932C19.9357 15.4942 19.942 15.4961 19.9492 15.4971Z" fill="url(#paint1_linear_138_456)"/>
</g>
<rect x="0.5" y="0.5" width="35" height="35" rx="13.5" stroke="url(#paint2_linear_138_456)" stroke-opacity="0.4"/>
<defs>
<filter id="filter0_f_138_456" x="-1" y="23" width="38" height="23" filterUnits="userSpaceOnUse" color-interpolation-filters="sRGB">
<feFlood flood-opacity="0" result="BackgroundImageFix"/>
<feBlend mode="normal" in="SourceGraphic" in2="BackgroundImageFix" result="shape"/>
<feGaussianBlur stdDeviation="4" result="effect1_foregroundBlur_138_456"/>
</filter>
<linearGradient id="paint0_linear_138_456" x1="10" y1="1.5" x2="26" y2="1.5" gradientUnits="userSpaceOnUse">
<stop stop-color="white" stop-opacity="0"/>
<stop offset="0.49" stop-color="white"/>
<stop offset="1" stop-color="white" stop-opacity="0"/>
</linearGradient>
<linearGradient id="paint1_linear_138_456" x1="17.9995" y1="10.833" x2="17.9995" y2="25.167" gradientUnits="userSpaceOnUse">
<stop stop-color="white"/>
<stop offset="1" stop-color="#999999"/>
</linearGradient>
<linearGradient id="paint2_linear_138_456" x1="18" y1="0" x2="18" y2="21.2727" gradientUnits="userSpaceOnUse">
<stop stop-color="white"/>
<stop offset="1" stop-color="white" stop-opacity="0"/>
</linearGradient>
<clipPath id="clip0_138_456">
<rect width="36" height="36" rx="14" fill="white"/>
</clipPath>
</defs>
</svg>
