<svg width="357" height="420" viewBox="0 0 357 420" fill="none" xmlns="http://www.w3.org/2000/svg">
<g clip-path="url(#clip0_117_277)">
<path d="M0 32C0 16.9151 0 9.37258 4.68629 4.68629C9.37258 0 16.9151 0 32 0H325C340.085 0 347.627 0 352.314 4.68629C357 9.37258 357 16.9151 357 32V388C357 403.085 357 410.627 352.314 415.314C347.627 420 340.085 420 325 420H32C16.9151 420 9.37258 420 4.68629 415.314C0 410.627 0 403.085 0 388V32Z" fill="white" fill-opacity="0.03"/>
<g filter="url(#filter0_f_117_277)">
<path d="M367 -95.5C282.5 65 192 164.5 170 187.5C149.125 178.63 192.611 34.6384 261.497 -127.473C330.383 -289.584 403.151 -413.809 424.026 -404.939C444.901 -396.069 435.886 -257.611 367 -95.5Z" fill="#EDFFFC" fill-opacity="0.15"/>
</g>
<path opacity="0.7" d="M-2.55176 20.9387H23.9971V-5.31226H25.4453V20.9387H51.999V-5.31226H53.4473V20.9387H79.9961V-5.31226H81.4443V20.9387H107.986V-5.31226H109.435V20.9387H135.984V-5.31226H137.433V20.9387H163.982V-5.31226H165.431V20.9387H191.983V-5.31226H193.432V20.9387H219.978V-5.31226H221.426V20.9387H247.976V-5.31226H249.424V20.9387H275.69V-5.31226H277.139V20.9387H303.691V-5.31226H305.14V20.9387H331.686V-5.31226H333.134V20.9387H359.48V22.387H333.134V48.9348H359.48V50.3831H333.134V76.9319H359.48V78.3801H333.134V104.93H359.48V106.378H333.134V132.926H359.48V134.374H333.134V160.923H359.48V162.371H333.134V188.921H359.48V190.369H333.134V216.917H359.48V218.365H333.134V244.914H359.48V246.363H-3.7002V246.066H-4V-5.31226H-2.55176V20.9387ZM361.131 246.066H359.683V-5.31226H361.131V246.066ZM-2.55176 244.914H23.9971V218.365H-2.55176V244.914ZM25.4453 244.914H51.999V218.365H25.4453V244.914ZM53.4473 244.914H79.9961V218.365H53.4473V244.914ZM81.4443 244.914H107.986V218.365H81.4443V244.914ZM109.435 244.914H135.984V218.365H109.435V244.914ZM137.433 244.914H163.982V218.365H137.433V244.914ZM165.431 244.914H191.983V218.365H165.431V244.914ZM193.432 244.914H219.978V218.365H193.432V244.914ZM221.426 244.914H247.976V218.365H221.426V244.914ZM249.424 244.914H275.69V218.365H249.424V244.914ZM277.139 244.914H303.691V218.365H277.139V244.914ZM305.14 244.914H331.686V218.365H305.14V244.914ZM-2.55176 216.917H23.9971V190.369H-2.55176V216.917ZM25.4453 216.917H51.999V190.369H25.4453V216.917ZM53.4473 216.917H79.9961V190.369H53.4473V216.917ZM81.4443 216.917H107.986V190.369H81.4443V216.917ZM109.435 216.917H135.984V190.369H109.435V216.917ZM137.433 216.917H163.982V190.369H137.433V216.917ZM165.431 216.917H191.983V190.369H165.431V216.917ZM193.432 216.917H219.978V190.369H193.432V216.917ZM221.426 216.917H247.976V190.369H221.426V216.917ZM249.424 216.917H275.69V190.369H249.424V216.917ZM277.139 216.917H303.691V190.369H277.139V216.917ZM305.14 216.917H331.686V190.369H305.14V216.917ZM-2.55176 188.921H23.9971V162.371H-2.55176V188.921ZM25.4453 188.921H51.999V162.371H25.4453V188.921ZM53.4473 188.921H79.9961V162.371H53.4473V188.921ZM81.4443 188.921H107.986V162.371H81.4443V188.921ZM109.435 188.921H135.984V162.371H109.435V188.921ZM137.433 188.921H163.982V162.371H137.433V188.921ZM165.431 188.921H191.983V162.371H165.431V188.921ZM193.432 188.921H219.978V162.371H193.432V188.921ZM221.426 188.921H247.976V162.371H221.426V188.921ZM249.424 188.921H275.69V162.371H249.424V188.921ZM277.139 188.921H303.691V162.371H277.139V188.921ZM305.14 188.921H331.686V162.371H305.14V188.921ZM-2.55176 160.923H23.9971V134.374H-2.55176V160.923ZM25.4453 160.923H51.999V134.374H25.4453V160.923ZM53.4473 160.923H79.9961V134.374H53.4473V160.923ZM81.4443 160.923H107.986V134.374H81.4443V160.923ZM109.435 160.923H135.984V134.374H109.435V160.923ZM137.433 160.923H163.982V134.374H137.433V160.923ZM165.431 160.923H191.983V134.374H165.431V160.923ZM193.432 160.923H219.978V134.374H193.432V160.923ZM221.426 160.923H247.976V134.374H221.426V160.923ZM249.424 160.923H275.69V134.374H249.424V160.923ZM277.139 160.923H303.691V134.374H277.139V160.923ZM305.14 160.923H331.686V134.374H305.14V160.923ZM-2.55176 132.926H23.9971V106.378H-2.55176V132.926ZM25.4453 132.926H51.999V106.378H25.4453V132.926ZM53.4473 132.926H79.9961V106.378H53.4473V132.926ZM81.4443 132.926H107.986V106.378H81.4443V132.926ZM109.435 132.926H135.984V106.378H109.435V132.926ZM137.433 132.926H163.982V106.378H137.433V132.926ZM165.431 132.926H191.983V106.378H165.431V132.926ZM193.432 132.926H219.978V106.378H193.432V132.926ZM221.426 132.926H247.976V106.378H221.426V132.926ZM249.424 132.926H275.69V106.378H249.424V132.926ZM277.139 132.926H303.691V106.378H277.139V132.926ZM305.14 132.926H331.686V106.378H305.14V132.926ZM-2.55176 104.93H23.9971V78.3801H-2.55176V104.93ZM25.4453 104.93H51.999V78.3801H25.4453V104.93ZM53.4473 104.93H79.9961V78.3801H53.4473V104.93ZM81.4443 104.93H107.986V78.3801H81.4443V104.93ZM109.435 104.93H135.984V78.3801H109.435V104.93ZM137.433 104.93H163.982V78.3801H137.433V104.93ZM165.431 104.93H191.983V78.3801H165.431V104.93ZM193.432 104.93H219.978V78.3801H193.432V104.93ZM221.426 104.93H247.976V78.3801H221.426V104.93ZM249.424 104.93H275.69V78.3801H249.424V104.93ZM277.139 104.93H303.691V78.3801H277.139V104.93ZM305.14 104.93H331.686V78.3801H305.14V104.93ZM-2.55176 76.9319H23.9971V50.3831H-2.55176V76.9319ZM25.4453 76.9319H51.999V50.3831H25.4453V76.9319ZM53.4473 76.9319H79.9961V50.3831H53.4473V76.9319ZM81.4443 76.9319H107.986V50.3831H81.4443V76.9319ZM109.435 76.9319H135.984V50.3831H109.435V76.9319ZM137.433 76.9319H163.982V50.3831H137.433V76.9319ZM165.431 76.9319H191.983V50.3831H165.431V76.9319ZM193.432 76.9319H219.978V50.3831H193.432V76.9319ZM221.426 76.9319H247.976V50.3831H221.426V76.9319ZM249.424 76.9319H275.69V50.3831H249.424V76.9319ZM277.139 76.9319H303.691V50.3831H277.139V76.9319ZM305.14 76.9319H331.686V50.3831H305.14V76.9319ZM-2.55176 48.9348H23.9971V22.387H-2.55176V48.9348ZM25.4453 48.9348H51.999V22.387H25.4453V48.9348ZM53.4473 48.9348H79.9961V22.387H53.4473V48.9348ZM81.4443 48.9348H107.986V22.387H81.4443V48.9348ZM109.435 48.9348H135.984V22.387H109.435V48.9348ZM137.433 48.9348H163.982V22.387H137.433V48.9348ZM165.431 48.9348H191.983V22.387H165.431V48.9348ZM193.432 48.9348H219.978V22.387H193.432V48.9348ZM221.426 48.9348H247.976V22.387H221.426V48.9348ZM249.424 48.9348H275.69V22.387H249.424V48.9348ZM277.139 48.9348H303.691V22.387H277.139V48.9348ZM305.14 48.9348H331.686V22.387H305.14V48.9348ZM359.48 -5.61108H-3.7002V-7.05933H359.48V-5.61108Z" fill="url(#paint0_linear_117_277)" fill-opacity="0.07"/>
</g>
<path d="M32 0.5H325C332.556 0.5 338.173 0.500854 342.489 1.08105C346.791 1.65939 349.725 2.80528 351.96 5.04004C354.195 7.2748 355.341 10.2092 355.919 14.5107C356.499 18.8266 356.5 24.4437 356.5 32V388C356.5 395.556 356.499 401.173 355.919 405.489C355.341 409.791 354.195 412.725 351.96 414.96C349.725 417.195 346.791 418.341 342.489 418.919C338.173 419.499 332.556 419.5 325 419.5H32C24.4437 419.5 18.8266 419.499 14.5107 418.919C10.2092 418.341 7.2748 417.195 5.04004 414.96C2.80528 412.725 1.65939 409.791 1.08105 405.489C0.500854 401.173 0.5 395.556 0.5 388V32C0.5 24.4437 0.500855 18.8266 1.08105 14.5107C1.65939 10.2092 2.80528 7.2748 5.04004 5.04004C7.2748 2.80528 10.2092 1.65939 14.5107 1.08105C18.8266 0.500855 24.4437 0.5 32 0.5Z" stroke="url(#paint1_linear_117_277)" stroke-opacity="0.6"/>
<defs>
<filter id="filter0_f_117_277" x="64.7422" y="-505.386" width="469.192" height="792.886" filterUnits="userSpaceOnUse" color-interpolation-filters="sRGB">
<feFlood flood-opacity="0" result="BackgroundImageFix"/>
<feBlend mode="normal" in="SourceGraphic" in2="BackgroundImageFix" result="shape"/>
<feGaussianBlur stdDeviation="50" result="effect1_foregroundBlur_117_277"/>
</filter>
<linearGradient id="paint0_linear_117_277" x1="238" y1="104" x2="311.46" y2="34.1983" gradientUnits="userSpaceOnUse">
<stop stop-opacity="0"/>
<stop offset="0.915503" stop-color="white" stop-opacity="0.5"/>
</linearGradient>
<linearGradient id="paint1_linear_117_277" x1="142.665" y1="2.93081e-08" x2="139.032" y2="207.956" gradientUnits="userSpaceOnUse">
<stop stop-color="white" stop-opacity="0.5"/>
<stop offset="0.346031" stop-color="white" stop-opacity="0.3"/>
<stop offset="1" stop-color="white" stop-opacity="0.05"/>
</linearGradient>
<clipPath id="clip0_117_277">
<path d="M0 32C0 16.9151 0 9.37258 4.68629 4.68629C9.37258 0 16.9151 0 32 0H325C340.085 0 347.627 0 352.314 4.68629C357 9.37258 357 16.9151 357 32V388C357 403.085 357 410.627 352.314 415.314C347.627 420 340.085 420 325 420H32C16.9151 420 9.37258 420 4.68629 415.314C0 410.627 0 403.085 0 388V32Z" fill="white"/>
</clipPath>
</defs>
</svg>
