<svg width="254" height="263" viewBox="0 0 254 263" fill="none" xmlns="http://www.w3.org/2000/svg">
<path d="M0 32C0 16.9151 0 9.37258 4.68629 4.68629C9.37258 0 16.9151 0 32 0H222C237.085 0 244.627 0 249.314 4.68629C254 9.37258 254 16.9151 254 32V231C254 246.085 254 253.627 249.314 258.314C244.627 263 237.085 263 222 263H32C16.9151 263 9.37258 263 4.68629 258.314C0 253.627 0 246.085 0 231V32Z" fill="white" fill-opacity="0.03"/>
<path d="M32 0.5H222C229.556 0.5 235.173 0.500855 239.489 1.08105C243.791 1.65939 246.725 2.80528 248.96 5.04004C251.195 7.2748 252.341 10.2092 252.919 14.5107C253.499 18.8266 253.5 24.4437 253.5 32V231C253.5 238.556 253.499 244.173 252.919 248.489C252.341 252.791 251.195 255.725 248.96 257.96C246.725 260.195 243.791 261.341 239.489 261.919C235.173 262.499 229.556 262.5 222 262.5H32C24.4437 262.5 18.8266 262.499 14.5107 261.919C10.2092 261.341 7.2748 260.195 5.04004 257.96C2.80528 255.725 1.65939 252.791 1.08105 248.489C0.500855 244.173 0.5 238.556 0.5 231V32C0.5 24.4437 0.500855 18.8266 1.08105 14.5107C1.65939 10.2092 2.80528 7.2748 5.04004 5.04004C7.2748 2.80528 10.2092 1.65939 14.5107 1.08105C18.8266 0.500855 24.4437 0.5 32 0.5Z" stroke="url(#paint0_linear_117_465)" stroke-opacity="0.6"/>
<g clip-path="url(#clip0_117_465)">
<path d="M0 80C0 64.9151 0 57.3726 4.68629 52.6863C9.37258 48 16.9151 48 32 48H222C237.085 48 244.627 48 249.314 52.6863C254 57.3726 254 64.9151 254 80V231C254 246.085 254 253.627 249.314 258.314C244.627 263 237.085 263 222 263H32C16.9151 263 9.37258 263 4.68629 258.314C0 253.627 0 246.085 0 231V80Z" fill="white" fill-opacity="0.03"/>
<g filter="url(#filter0_f_117_465)">
<path d="M294.501 22.0001C307.66 31.1552 305.856 128.06 256.499 199C207.142 269.94 137.985 314.627 124.826 305.472C111.668 296.317 141.013 231.388 190.369 160.448C201 -53.5001 281.343 12.845 294.501 22.0001Z" fill="#00E8FF" fill-opacity="0.8"/>
</g>
<path opacity="0.7" d="M-26.9019 71.752H-4.37646V49.4814H-3.14795V71.752H19.3774V49.4814H20.606V71.752H43.1313V49.4814H44.3599V71.752H66.8774V49.4814H68.106V71.752H90.6313V49.4814H91.8599V71.752H114.385V49.4814H115.614V71.752H138.139V49.4814H139.368V71.752H161.889V49.4814H163.118V71.752H185.643V49.4814H186.872V71.752H209.155V49.4814H210.383V71.752H232.909V49.4814H234.137V71.752H256.659V49.4814H257.887V71.752H280.245V72.9805H257.887V95.5039H280.245V96.7324H257.887V119.257H280.245V120.485H257.887V143.01H280.245V144.238H257.887V166.762H280.245V167.99H257.887V190.514H280.245V191.742H257.887V214.267H280.245V215.495H257.887V238.019H280.245V239.247H257.887V261.771H280.245V263H-27.8745V262.748H-28.1304V49.4814H-26.9019V71.752ZM281.641 262.748H280.413V49.4814H281.641V262.748ZM-26.9019 261.771H-4.37646V239.247H-26.9019V261.771ZM-3.14795 261.771H19.3774V239.247H-3.14795V261.771ZM20.606 261.771H43.1313V239.247H20.606V261.771ZM44.3599 261.771H66.8774V239.247H44.3599V261.771ZM68.106 261.771H90.6313V239.247H68.106V261.771ZM91.8599 261.771H114.385V239.247H91.8599V261.771ZM115.614 261.771H138.139V239.247H115.614V261.771ZM139.368 261.771H161.889V239.247H139.368V261.771ZM163.118 261.771H185.643V239.247H163.118V261.771ZM186.872 261.771H209.155V239.247H186.872V261.771ZM210.383 261.771H232.909V239.247H210.383V261.771ZM234.137 261.771H256.659V239.247H234.137V261.771ZM-26.9019 238.019H-4.37646V215.495H-26.9019V238.019ZM-3.14795 238.019H19.3774V215.495H-3.14795V238.019ZM20.606 238.019H43.1313V215.495H20.606V238.019ZM44.3599 238.019H66.8774V215.495H44.3599V238.019ZM68.106 238.019H90.6313V215.495H68.106V238.019ZM91.8599 238.019H114.385V215.495H91.8599V238.019ZM115.614 238.019H138.139V215.495H115.614V238.019ZM139.368 238.019H161.889V215.495H139.368V238.019ZM163.118 238.019H185.643V215.495H163.118V238.019ZM186.872 238.019H209.155V215.495H186.872V238.019ZM210.383 238.019H232.909V215.495H210.383V238.019ZM234.137 238.019H256.659V215.495H234.137V238.019ZM-26.9019 214.267H-4.37646V191.742H-26.9019V214.267ZM-3.14795 214.267H19.3774V191.742H-3.14795V214.267ZM20.606 214.267H43.1313V191.742H20.606V214.267ZM44.3599 214.267H66.8774V191.742H44.3599V214.267ZM68.106 214.267H90.6313V191.742H68.106V214.267ZM91.8599 214.267H114.385V191.742H91.8599V214.267ZM115.614 214.267H138.139V191.742H115.614V214.267ZM139.368 214.267H161.889V191.742H139.368V214.267ZM163.118 214.267H185.643V191.742H163.118V214.267ZM186.872 214.267H209.155V191.742H186.872V214.267ZM210.383 214.267H232.909V191.742H210.383V214.267ZM234.137 214.267H256.659V191.742H234.137V214.267ZM-26.9019 190.514H-4.37646V167.99H-26.9019V190.514ZM-3.14795 190.514H19.3774V167.99H-3.14795V190.514ZM20.606 190.514H43.1313V167.99H20.606V190.514ZM44.3599 190.514H66.8774V167.99H44.3599V190.514ZM68.106 190.514H90.6313V167.99H68.106V190.514ZM91.8599 190.514H114.385V167.99H91.8599V190.514ZM115.614 190.514H138.139V167.99H115.614V190.514ZM139.368 190.514H161.889V167.99H139.368V190.514ZM163.118 190.514H185.643V167.99H163.118V190.514ZM186.872 190.514H209.155V167.99H186.872V190.514ZM210.383 190.514H232.909V167.99H210.383V190.514ZM234.137 190.514H256.659V167.99H234.137V190.514ZM-26.9019 166.762H-4.37646V144.238H-26.9019V166.762ZM-3.14795 166.762H19.3774V144.238H-3.14795V166.762ZM20.606 166.762H43.1313V144.238H20.606V166.762ZM44.3599 166.762H66.8774V144.238H44.3599V166.762ZM68.106 166.762H90.6313V144.238H68.106V166.762ZM91.8599 166.762H114.385V144.238H91.8599V166.762ZM115.614 166.762H138.139V144.238H115.614V166.762ZM139.368 166.762H161.889V144.238H139.368V166.762ZM163.118 166.762H185.643V144.238H163.118V166.762ZM186.872 166.762H209.155V144.238H186.872V166.762ZM210.383 166.762H232.909V144.238H210.383V166.762ZM234.137 166.762H256.659V144.238H234.137V166.762ZM-26.9019 143.01H-4.37646V120.485H-26.9019V143.01ZM-3.14795 143.01H19.3774V120.485H-3.14795V143.01ZM20.606 143.01H43.1313V120.485H20.606V143.01ZM44.3599 143.01H66.8774V120.485H44.3599V143.01ZM68.106 143.01H90.6313V120.485H68.106V143.01ZM91.8599 143.01H114.385V120.485H91.8599V143.01ZM115.614 143.01H138.139V120.485H115.614V143.01ZM139.368 143.01H161.889V120.485H139.368V143.01ZM163.118 143.01H185.643V120.485H163.118V143.01ZM186.872 143.01H209.155V120.485H186.872V143.01ZM210.383 143.01H232.909V120.485H210.383V143.01ZM234.137 143.01H256.659V120.485H234.137V143.01ZM-26.9019 119.257H-4.37646V96.7324H-26.9019V119.257ZM-3.14795 119.257H19.3774V96.7324H-3.14795V119.257ZM20.606 119.257H43.1313V96.7324H20.606V119.257ZM44.3599 119.257H66.8774V96.7324H44.3599V119.257ZM68.106 119.257H90.6313V96.7324H68.106V119.257ZM91.8599 119.257H114.385V96.7324H91.8599V119.257ZM115.614 119.257H138.139V96.7324H115.614V119.257ZM139.368 119.257H161.889V96.7324H139.368V119.257ZM163.118 119.257H185.643V96.7324H163.118V119.257ZM186.872 119.257H209.155V96.7324H186.872V119.257ZM210.383 119.257H232.909V96.7324H210.383V119.257ZM234.137 119.257H256.659V96.7324H234.137V119.257ZM-26.9019 95.5039H-4.37646V72.9805H-26.9019V95.5039ZM-3.14795 95.5039H19.3774V72.9805H-3.14795V95.5039ZM20.606 95.5039H43.1313V72.9805H20.606V95.5039ZM44.3599 95.5039H66.8774V72.9805H44.3599V95.5039ZM68.106 95.5039H90.6313V72.9805H68.106V95.5039ZM91.8599 95.5039H114.385V72.9805H91.8599V95.5039ZM115.614 95.5039H138.139V72.9805H115.614V95.5039ZM139.368 95.5039H161.889V72.9805H139.368V95.5039ZM163.118 95.5039H185.643V72.9805H163.118V95.5039ZM186.872 95.5039H209.155V72.9805H186.872V95.5039ZM210.383 95.5039H232.909V72.9805H210.383V95.5039ZM234.137 95.5039H256.659V72.9805H234.137V95.5039ZM280.245 49.2285H-27.8745V48H280.245V49.2285Z" fill="url(#paint1_linear_117_465)" fill-opacity="0.07"/>
</g>
<path d="M32 48.5H222C229.556 48.5 235.173 48.5009 239.489 49.0811C243.791 49.6594 246.725 50.8053 248.96 53.04C251.195 55.2748 252.341 58.2092 252.919 62.5107C253.499 66.8266 253.5 72.4437 253.5 80V231C253.5 238.556 253.499 244.173 252.919 248.489C252.341 252.791 251.195 255.725 248.96 257.96C246.725 260.195 243.791 261.341 239.489 261.919C235.173 262.499 229.556 262.5 222 262.5H32C24.4437 262.5 18.8266 262.499 14.5107 261.919C10.2092 261.341 7.2748 260.195 5.04004 257.96C2.80528 255.725 1.65939 252.791 1.08105 248.489C0.500855 244.173 0.5 238.556 0.5 231V80C0.5 72.4437 0.500855 66.8266 1.08105 62.5107C1.65939 58.2092 2.80528 55.2748 5.04004 53.04C7.2748 50.8053 10.2092 49.6594 14.5107 49.0811C18.8266 48.5009 24.4437 48.5 32 48.5Z" stroke="url(#paint2_linear_117_465)" stroke-opacity="0.6"/>
<defs>
<filter id="filter0_f_117_465" x="-8.31787" y="-124.846" width="439.789" height="561.504" filterUnits="userSpaceOnUse" color-interpolation-filters="sRGB">
<feFlood flood-opacity="0" result="BackgroundImageFix"/>
<feBlend mode="normal" in="SourceGraphic" in2="BackgroundImageFix" result="shape"/>
<feGaussianBlur stdDeviation="65" result="effect1_foregroundBlur_117_465"/>
</filter>
<linearGradient id="paint0_linear_117_465" x1="101.504" y1="1.83524e-08" x2="99.5016" y2="130.229" gradientUnits="userSpaceOnUse">
<stop stop-color="white" stop-opacity="0.5"/>
<stop offset="0.346031" stop-color="white" stop-opacity="0.3"/>
<stop offset="1" stop-color="white" stop-opacity="0.05"/>
</linearGradient>
<linearGradient id="paint1_linear_117_465" x1="157.499" y1="166.5" x2="239.502" y2="83.0036" gradientUnits="userSpaceOnUse">
<stop stop-opacity="0"/>
<stop offset="0.915503" stop-color="white" stop-opacity="0.85"/>
</linearGradient>
<linearGradient id="paint2_linear_117_465" x1="101.504" y1="48" x2="100.166" y2="154.469" gradientUnits="userSpaceOnUse">
<stop stop-color="white" stop-opacity="0.5"/>
<stop offset="0.346031" stop-color="white" stop-opacity="0.3"/>
<stop offset="1" stop-color="white" stop-opacity="0.05"/>
</linearGradient>
<clipPath id="clip0_117_465">
<path d="M0 80C0 64.9151 0 57.3726 4.68629 52.6863C9.37258 48 16.9151 48 32 48H222C237.085 48 244.627 48 249.314 52.6863C254 57.3726 254 64.9151 254 80V231C254 246.085 254 253.627 249.314 258.314C244.627 263 237.085 263 222 263H32C16.9151 263 9.37258 263 4.68629 258.314C0 253.627 0 246.085 0 231V80Z" fill="white"/>
</clipPath>
</defs>
</svg>
