<svg width="254" height="263" viewBox="0 0 254 263" fill="none" xmlns="http://www.w3.org/2000/svg">
<path d="M0 32C0 16.9151 0 9.37258 4.68629 4.68629C9.37258 0 16.9151 0 32 0H222C237.085 0 244.627 0 249.314 4.68629C254 9.37258 254 16.9151 254 32V231C254 246.085 254 253.627 249.314 258.314C244.627 263 237.085 263 222 263H32C16.9151 263 9.37258 263 4.68629 258.314C0 253.627 0 246.085 0 231V32Z" fill="white" fill-opacity="0.03"/>
<path d="M32 0.5H222C229.556 0.5 235.173 0.500855 239.489 1.08105C243.791 1.65939 246.725 2.80528 248.96 5.04004C251.195 7.2748 252.341 10.2092 252.919 14.5107C253.499 18.8266 253.5 24.4437 253.5 32V231C253.5 238.556 253.499 244.173 252.919 248.489C252.341 252.791 251.195 255.725 248.96 257.96C246.725 260.195 243.791 261.341 239.489 261.919C235.173 262.499 229.556 262.5 222 262.5H32C24.4437 262.5 18.8266 262.499 14.5107 261.919C10.2092 261.341 7.2748 260.195 5.04004 257.96C2.80528 255.725 1.65939 252.791 1.08105 248.489C0.500855 244.173 0.5 238.556 0.5 231V32C0.5 24.4437 0.500855 18.8266 1.08105 14.5107C1.65939 10.2092 2.80528 7.2748 5.04004 5.04004C7.2748 2.80528 10.2092 1.65939 14.5107 1.08105C18.8266 0.500855 24.4437 0.5 32 0.5Z" stroke="url(#paint0_linear_117_666)" stroke-opacity="0.6"/>
<g clip-path="url(#clip0_117_666)">
<path d="M0 80C0 64.9151 0 57.3726 4.68629 52.6863C9.37258 48 16.9151 48 32 48H222C237.085 48 244.627 48 249.314 52.6863C254 57.3726 254 64.9151 254 80V231C254 246.085 254 253.627 249.314 258.314C244.627 263 237.085 263 222 263H32C16.9151 263 9.37258 263 4.68629 258.314C0 253.627 0 246.085 0 231V80Z" fill="white" fill-opacity="0.03"/>
<g filter="url(#filter0_f_117_666)">
<path d="M294.501 22.0001C307.659 31.1552 305.856 128.06 256.499 199C207.142 269.94 137.984 314.627 124.826 305.472C111.667 296.317 141.012 231.388 190.369 160.448C201 -53.5001 281.342 12.845 294.501 22.0001Z" fill="#00FFE1" fill-opacity="0.8"/>
</g>
<path opacity="0.7" d="M-26.9004 71.752H-4.375V49.4814H-3.14648V71.752H19.3789V49.4814H20.6074V71.752H43.1328V49.4814H44.3613V71.752H66.8789V49.4814H68.1074V71.752H90.6328V49.4814H91.8613V71.752H114.387V49.4814H115.615V71.752H138.141V49.4814H139.369V71.752H161.891V49.4814H163.119V71.752H185.645V49.4814H186.873V71.752H209.156V49.4814H210.385V71.752H232.91V49.4814H234.139V71.752H256.66V49.4814H257.889V71.752H280.246V72.9805H257.889V95.5039H280.246V96.7324H257.889V119.257H280.246V120.485H257.889V143.01H280.246V144.238H257.889V166.762H280.246V167.99H257.889V190.514H280.246V191.742H257.889V214.267H280.246V215.495H257.889V238.019H280.246V239.247H257.889V261.771H280.246V263H-27.873V262.748H-28.1289V49.4814H-26.9004V71.752ZM281.643 262.748H280.414V49.4814H281.643V262.748ZM-26.9004 261.771H-4.375V239.247H-26.9004V261.771ZM-3.14648 261.771H19.3789V239.247H-3.14648V261.771ZM20.6074 261.771H43.1328V239.247H20.6074V261.771ZM44.3613 261.771H66.8789V239.247H44.3613V261.771ZM68.1074 261.771H90.6328V239.247H68.1074V261.771ZM91.8613 261.771H114.387V239.247H91.8613V261.771ZM115.615 261.771H138.141V239.247H115.615V261.771ZM139.369 261.771H161.891V239.247H139.369V261.771ZM163.119 261.771H185.645V239.247H163.119V261.771ZM186.873 261.771H209.156V239.247H186.873V261.771ZM210.385 261.771H232.91V239.247H210.385V261.771ZM234.139 261.771H256.66V239.247H234.139V261.771ZM-26.9004 238.019H-4.375V215.495H-26.9004V238.019ZM-3.14648 238.019H19.3789V215.495H-3.14648V238.019ZM20.6074 238.019H43.1328V215.495H20.6074V238.019ZM44.3613 238.019H66.8789V215.495H44.3613V238.019ZM68.1074 238.019H90.6328V215.495H68.1074V238.019ZM91.8613 238.019H114.387V215.495H91.8613V238.019ZM115.615 238.019H138.141V215.495H115.615V238.019ZM139.369 238.019H161.891V215.495H139.369V238.019ZM163.119 238.019H185.645V215.495H163.119V238.019ZM186.873 238.019H209.156V215.495H186.873V238.019ZM210.385 238.019H232.91V215.495H210.385V238.019ZM234.139 238.019H256.66V215.495H234.139V238.019ZM-26.9004 214.267H-4.375V191.742H-26.9004V214.267ZM-3.14648 214.267H19.3789V191.742H-3.14648V214.267ZM20.6074 214.267H43.1328V191.742H20.6074V214.267ZM44.3613 214.267H66.8789V191.742H44.3613V214.267ZM68.1074 214.267H90.6328V191.742H68.1074V214.267ZM91.8613 214.267H114.387V191.742H91.8613V214.267ZM115.615 214.267H138.141V191.742H115.615V214.267ZM139.369 214.267H161.891V191.742H139.369V214.267ZM163.119 214.267H185.645V191.742H163.119V214.267ZM186.873 214.267H209.156V191.742H186.873V214.267ZM210.385 214.267H232.91V191.742H210.385V214.267ZM234.139 214.267H256.66V191.742H234.139V214.267ZM-26.9004 190.514H-4.375V167.99H-26.9004V190.514ZM-3.14648 190.514H19.3789V167.99H-3.14648V190.514ZM20.6074 190.514H43.1328V167.99H20.6074V190.514ZM44.3613 190.514H66.8789V167.99H44.3613V190.514ZM68.1074 190.514H90.6328V167.99H68.1074V190.514ZM91.8613 190.514H114.387V167.99H91.8613V190.514ZM115.615 190.514H138.141V167.99H115.615V190.514ZM139.369 190.514H161.891V167.99H139.369V190.514ZM163.119 190.514H185.645V167.99H163.119V190.514ZM186.873 190.514H209.156V167.99H186.873V190.514ZM210.385 190.514H232.91V167.99H210.385V190.514ZM234.139 190.514H256.66V167.99H234.139V190.514ZM-26.9004 166.762H-4.375V144.238H-26.9004V166.762ZM-3.14648 166.762H19.3789V144.238H-3.14648V166.762ZM20.6074 166.762H43.1328V144.238H20.6074V166.762ZM44.3613 166.762H66.8789V144.238H44.3613V166.762ZM68.1074 166.762H90.6328V144.238H68.1074V166.762ZM91.8613 166.762H114.387V144.238H91.8613V166.762ZM115.615 166.762H138.141V144.238H115.615V166.762ZM139.369 166.762H161.891V144.238H139.369V166.762ZM163.119 166.762H185.645V144.238H163.119V166.762ZM186.873 166.762H209.156V144.238H186.873V166.762ZM210.385 166.762H232.91V144.238H210.385V166.762ZM234.139 166.762H256.66V144.238H234.139V166.762ZM-26.9004 143.01H-4.375V120.485H-26.9004V143.01ZM-3.14648 143.01H19.3789V120.485H-3.14648V143.01ZM20.6074 143.01H43.1328V120.485H20.6074V143.01ZM44.3613 143.01H66.8789V120.485H44.3613V143.01ZM68.1074 143.01H90.6328V120.485H68.1074V143.01ZM91.8613 143.01H114.387V120.485H91.8613V143.01ZM115.615 143.01H138.141V120.485H115.615V143.01ZM139.369 143.01H161.891V120.485H139.369V143.01ZM163.119 143.01H185.645V120.485H163.119V143.01ZM186.873 143.01H209.156V120.485H186.873V143.01ZM210.385 143.01H232.91V120.485H210.385V143.01ZM234.139 143.01H256.66V120.485H234.139V143.01ZM-26.9004 119.257H-4.375V96.7324H-26.9004V119.257ZM-3.14648 119.257H19.3789V96.7324H-3.14648V119.257ZM20.6074 119.257H43.1328V96.7324H20.6074V119.257ZM44.3613 119.257H66.8789V96.7324H44.3613V119.257ZM68.1074 119.257H90.6328V96.7324H68.1074V119.257ZM91.8613 119.257H114.387V96.7324H91.8613V119.257ZM115.615 119.257H138.141V96.7324H115.615V119.257ZM139.369 119.257H161.891V96.7324H139.369V119.257ZM163.119 119.257H185.645V96.7324H163.119V119.257ZM186.873 119.257H209.156V96.7324H186.873V119.257ZM210.385 119.257H232.91V96.7324H210.385V119.257ZM234.139 119.257H256.66V96.7324H234.139V119.257ZM-26.9004 95.5039H-4.375V72.9805H-26.9004V95.5039ZM-3.14648 95.5039H19.3789V72.9805H-3.14648V95.5039ZM20.6074 95.5039H43.1328V72.9805H20.6074V95.5039ZM44.3613 95.5039H66.8789V72.9805H44.3613V95.5039ZM68.1074 95.5039H90.6328V72.9805H68.1074V95.5039ZM91.8613 95.5039H114.387V72.9805H91.8613V95.5039ZM115.615 95.5039H138.141V72.9805H115.615V95.5039ZM139.369 95.5039H161.891V72.9805H139.369V95.5039ZM163.119 95.5039H185.645V72.9805H163.119V95.5039ZM186.873 95.5039H209.156V72.9805H186.873V95.5039ZM210.385 95.5039H232.91V72.9805H210.385V95.5039ZM234.139 95.5039H256.66V72.9805H234.139V95.5039ZM280.246 49.2285H-27.873V48H280.246V49.2285Z" fill="url(#paint1_linear_117_666)" fill-opacity="0.07"/>
</g>
<path d="M32 48.5H222C229.556 48.5 235.173 48.5009 239.489 49.0811C243.791 49.6594 246.725 50.8053 248.96 53.04C251.195 55.2748 252.341 58.2092 252.919 62.5107C253.499 66.8266 253.5 72.4437 253.5 80V231C253.5 238.556 253.499 244.173 252.919 248.489C252.341 252.791 251.195 255.725 248.96 257.96C246.725 260.195 243.791 261.341 239.489 261.919C235.173 262.499 229.556 262.5 222 262.5H32C24.4437 262.5 18.8266 262.499 14.5107 261.919C10.2092 261.341 7.2748 260.195 5.04004 257.96C2.80528 255.725 1.65939 252.791 1.08105 248.489C0.500855 244.173 0.5 238.556 0.5 231V80C0.5 72.4437 0.500855 66.8266 1.08105 62.5107C1.65939 58.2092 2.80528 55.2748 5.04004 53.04C7.2748 50.8053 10.2092 49.6594 14.5107 49.0811C18.8266 48.5009 24.4437 48.5 32 48.5Z" stroke="url(#paint2_linear_117_666)" stroke-opacity="0.6"/>
<defs>
<filter id="filter0_f_117_666" x="-8.31836" y="-124.846" width="439.789" height="561.504" filterUnits="userSpaceOnUse" color-interpolation-filters="sRGB">
<feFlood flood-opacity="0" result="BackgroundImageFix"/>
<feBlend mode="normal" in="SourceGraphic" in2="BackgroundImageFix" result="shape"/>
<feGaussianBlur stdDeviation="65" result="effect1_foregroundBlur_117_666"/>
</filter>
<linearGradient id="paint0_linear_117_666" x1="101.504" y1="1.83524e-08" x2="99.5016" y2="130.229" gradientUnits="userSpaceOnUse">
<stop stop-color="white" stop-opacity="0.5"/>
<stop offset="0.346031" stop-color="white" stop-opacity="0.3"/>
<stop offset="1" stop-color="white" stop-opacity="0.05"/>
</linearGradient>
<linearGradient id="paint1_linear_117_666" x1="157.5" y1="166.5" x2="239.504" y2="83.0036" gradientUnits="userSpaceOnUse">
<stop stop-opacity="0"/>
<stop offset="0.915503" stop-color="white" stop-opacity="0.85"/>
</linearGradient>
<linearGradient id="paint2_linear_117_666" x1="101.504" y1="48" x2="100.166" y2="154.469" gradientUnits="userSpaceOnUse">
<stop stop-color="white" stop-opacity="0.5"/>
<stop offset="0.346031" stop-color="white" stop-opacity="0.3"/>
<stop offset="1" stop-color="white" stop-opacity="0.05"/>
</linearGradient>
<clipPath id="clip0_117_666">
<path d="M0 80C0 64.9151 0 57.3726 4.68629 52.6863C9.37258 48 16.9151 48 32 48H222C237.085 48 244.627 48 249.314 52.6863C254 57.3726 254 64.9151 254 80V231C254 246.085 254 253.627 249.314 258.314C244.627 263 237.085 263 222 263H32C16.9151 263 9.37258 263 4.68629 258.314C0 253.627 0 246.085 0 231V80Z" fill="white"/>
</clipPath>
</defs>
</svg>
