<svg width="16" height="16" viewBox="0 0 16 16" fill="none" xmlns="http://www.w3.org/2000/svg">
<path d="M7.7605 7.7605V12.9342" stroke="white" stroke-width="0.97006" stroke-linecap="round"/>
<path d="M7.43713 4.5676C7.54048 4.54101 7.64887 4.52686 7.76049 4.52686C8.47484 4.52686 9.0539 5.10594 9.0539 5.82027C9.0539 5.93192 9.03974 6.04027 9.01316 6.14362" stroke="white" stroke-width="0.97006" stroke-linecap="round"/>
<path d="M1.2934 1.29346L14.2275 14.2276" stroke="white" stroke-width="0.97006" stroke-linecap="round"/>
<path d="M10.9674 3.88013C11.3941 4.44251 11.6407 5.10758 11.6407 5.82025C11.6407 6.53292 11.3941 7.19799 10.9674 7.76037M4.55358 7.76037C4.12692 7.19799 3.88025 6.53292 3.88025 5.82025C3.88025 5.36489 3.98095 4.92896 4.16497 4.52683" stroke="white" stroke-width="0.97006" stroke-linecap="round" stroke-linejoin="round"/>
<path d="M13.1384 2.58691C13.8263 3.51176 14.2275 4.62394 14.2275 5.82045C14.2275 7.01698 13.8263 8.12912 13.1384 9.05398M2.38251 2.58691C1.69459 3.51176 1.2934 4.62394 1.2934 5.82045C1.2934 7.01698 1.69459 8.12912 2.38251 9.05398" stroke="white" stroke-width="0.97006" stroke-linecap="round" stroke-linejoin="round"/>
</svg>
