<svg width="36" height="36" viewBox="0 0 36 36" fill="none" xmlns="http://www.w3.org/2000/svg">
<rect width="36" height="36" rx="14" fill="white" fill-opacity="0.03"/>
<rect x="0.5" y="0.5" width="35" height="35" rx="13.5" stroke="url(#paint0_linear_1318_6451)" stroke-opacity="0.6"/>
<path d="M18 15V18L19.125 19.125" stroke="white" stroke-width="1.5" stroke-linecap="round" stroke-linejoin="round"/>
<path d="M23.6591 21.34C24.8864 22.0027 25.5 22.3341 25.5 22.875C25.5 23.4158 24.8864 23.7472 23.6591 24.4099L22.8233 24.8613C21.8808 25.3702 21.4096 25.6247 21.1829 25.4397C20.628 24.9865 21.4925 23.817 21.7052 23.4027C21.9208 22.983 21.9169 22.7594 21.7052 22.3472C21.4925 21.9329 20.628 20.7634 21.1829 20.3103C21.4096 20.1252 21.8808 20.3797 22.8233 20.8887L23.6591 21.34Z" stroke="white" stroke-width="1.5"/>
<path d="M18.7696 25.461C18.5166 25.4868 18.2598 25.5 18 25.5C13.8579 25.5 10.5 22.1421 10.5 18C10.5 13.8579 13.8579 10.5 18 10.5C22.1421 10.5 25.5 13.8579 25.5 18C25.5 18.5137 25.4483 19.0153 25.35 19.5" stroke="white" stroke-width="1.5" stroke-linecap="round"/>
<defs>
<linearGradient id="paint0_linear_1318_6451" x1="18" y1="0" x2="18" y2="14.7273" gradientUnits="userSpaceOnUse">
<stop stop-color="white"/>
<stop offset="1" stop-color="white" stop-opacity="0.07"/>
</linearGradient>
</defs>
</svg>
